<svg xmlns="http://www.w3.org/2000/svg" viewBox="0 0 1210.78 191.82"><defs><style>.cls-1{font-size:179.7px;fill:#9dd7ef;font-family:Ubuntu-Bold, Ubuntu;font-weight:700;}.cls-2{letter-spacing:-0.02em;}.cls-3{fill:#03acc6;letter-spacing:0em;}.cls-4{fill:#00a6b7;}.cls-5{fill:#66c7ec;}.cls-6{fill:#0cacc6;}.cls-7{fill:#9cd7f0;}</style></defs><title>steamhive_1</title><g id="Layer_2" data-name="Layer 2"><g id="Layer_2-2" data-name="Layer 2"><text class="cls-1" transform="translate(0 152.11)"><tspan class="cls-2">S</tspan><tspan x="100.99" y="0" xml:space="preserve">TEAM    </tspan><tspan class="cls-3" x="783.46" y="0">HIVE</tspan></text><path class="cls-4" d="M648.62,62.94a18.09,18.09,0,0,1,1.08-2.2,16.9,16.9,0,0,1,6-6.21l38-21.93a18,18,0,0,1,16.73,0L726.69,42l14-3.77L715.52,23.7a28.21,28.21,0,0,0-27,0l-38,21.93a27.11,27.11,0,0,0-9.73,10A28,28,0,0,0,637.22,66Z"/><path class="cls-5" d="M652.52,124.87a18.82,18.82,0,0,1-4.94-9.31L756.73,86.32V97L767,94.19V73.35L637,108.18v4.69a27.57,27.57,0,0,0,4.69,14.9Z"/><path class="cls-6" d="M637,76.69V97.53l10.29-2.75V84.15L750.88,56.4a18.82,18.82,0,0,1,5.41,9.17l9.92-2.65A28.32,28.32,0,0,0,753.5,45.63l-.17-.1Z"/><path class="cls-7" d="M650.29,136.11l.24.16,38,21.92a28.21,28.21,0,0,0,27,0l38-21.93A28.21,28.21,0,0,0,767,112.87v-8Zm104-15a16.83,16.83,0,0,1-6,6.21l-38,21.93a18,18,0,0,1-16.73,0l-17.25-10,79.36-21.27A19.19,19.19,0,0,1,754.33,121.15Z"/></g></g></svg>