<svg xmlns="http://www.w3.org/2000/svg" viewBox="0 0 1170 1016"><defs><style>.cls-1{fill:#bde2ec;}.cls-2{fill:#cfde91;}.cls-3{fill:#ffeaec;}.cls-4{fill:#fff7c8;}.cls-5{fill:#f8dad2;}.cls-6{fill:#f5e5f7;}.cls-7{fill:#e8f9ff;}.cls-8{fill:#f8ffe5;}.cls-9{fill:#e2eafd;}.cls-10{fill:#ffd0d7;}.cls-11{opacity:0.2;}.cls-12{fill:#fff;}.cls-13{fill:#fffbbd;}.cls-14{fill:#fff435;}</style></defs><title>consortium_hives</title><g id="Layer_2" data-name="Layer 2"><path class="cls-1" d="M363.13,727.69a6.21,6.21,0,0,1-3.16,3.86,6.38,6.38,0,0,1-5,.43,6.45,6.45,0,0,1-3.91-3.16l-1.29-2.47a31.85,31.85,0,0,0-3.64-5.14,3,3,0,0,0-1-.48,25.53,25.53,0,0,0-2.78-.65,24.1,24.1,0,0,0-4.45-.37q-6.75-.21-9,.64a12.6,12.6,0,0,0-2.89,4.29,9.3,9.3,0,0,0-.43,6,11.15,11.15,0,0,0,3.54,6,11.68,11.68,0,0,0,5.46,3.11q4.29.86,10.71,2.35A40.52,40.52,0,0,1,352.1,744a14.11,14.11,0,0,1,4.66,3.11,27.9,27.9,0,0,1,5.14,8.36,23.73,23.73,0,0,1,2.15,10.61,24.53,24.53,0,0,1-2.25,8.35,42.46,42.46,0,0,1-3.65,6.65q-2.36,3.75-8.46,7.71a30.48,30.48,0,0,1-12.86,4.82,26.42,26.42,0,0,1-12.22-1.28,37.87,37.87,0,0,1-8.35-4.4,26.2,26.2,0,0,1-6.11-6.21l-1.61-2.46a6.61,6.61,0,0,1,1.82-9.11,6.46,6.46,0,0,1,5-1,6.36,6.36,0,0,1,4.23,2.79l1.61,2.46a10.35,10.35,0,0,0,2.78,2.79,24,24,0,0,0,5.25,2.79,12.9,12.9,0,0,0,6.11.53,17,17,0,0,0,7.18-2.78,18.92,18.92,0,0,0,4.71-3.86,43.06,43.06,0,0,0,2.57-4.82,11.59,11.59,0,0,0,1.08-4.08,10.86,10.86,0,0,0-1.08-4.39,18.63,18.63,0,0,0-2.25-4.07A17.28,17.28,0,0,0,342.4,755q-6.21-1.4-10.39-2.25a25.57,25.57,0,0,1-11.68-6.21,23.9,23.9,0,0,1-7.61-13,22,22,0,0,1,1.39-14.46,23.7,23.7,0,0,1,6.86-9.22,14.65,14.65,0,0,1,6.86-2.89,69.51,69.51,0,0,1,10.39-.43A40.19,40.19,0,0,1,349.1,708a14.5,14.5,0,0,1,7.34,5,50.78,50.78,0,0,1,4.93,7.18l1.39,2.57A6.5,6.5,0,0,1,363.13,727.69Z"/><path class="cls-1" d="M421.48,728.92a6.7,6.7,0,0,1,6.32,6.86l-.43,13.61q-.54,13.4-.43,19.39v9.33c-.07,2-.11,3.68-.11,5v3.54a6.76,6.76,0,0,1-6.64,6.64,6.23,6.23,0,0,1-4.61-2,6.49,6.49,0,0,1-1.92-4.66v-2.36c-.86.79-1.76,1.54-2.68,2.25A17.28,17.28,0,0,1,399.51,790a13.55,13.55,0,0,1-7.93-2.73,34,34,0,0,1-6.86-7.13q-6.42-8.57-7.6-20.89a103.54,103.54,0,0,1-.43-17.15l.43-5.46a6.81,6.81,0,0,1,2.41-4.5,6.08,6.08,0,0,1,4.77-1.56,6.5,6.5,0,0,1,4.44,2.36,6.36,6.36,0,0,1,1.56,4.77l-.54,5.57a86.73,86.73,0,0,0,.54,14.79,27,27,0,0,0,5,14.25q2.9,4,4.61,4.5a4.51,4.51,0,0,0,3.11-.75,23,23,0,0,0,4.18-4.18,22.18,22.18,0,0,0,3.21-5.78,24.47,24.47,0,0,0,1.82-6.54q.54-3.65.86-7t.54-6.53c.14-2.14.28-4,.42-5.47s.11-2.25.11-2.68v-.85a6.28,6.28,0,0,1,.64-2.79,6.41,6.41,0,0,1,2.36-3.91A6.25,6.25,0,0,1,421.48,728.92Z"/><path class="cls-1" d="M443.87,721.05a6.57,6.57,0,0,1,9.16,1.66,6.18,6.18,0,0,1,1,4.93l-.43,2.78a3.71,3.71,0,0,0-.11,1.18,27.2,27.2,0,0,1,3.76-2.46,18.81,18.81,0,0,1,9.75-2.47,26.33,26.33,0,0,1,6.53,1.08,16.91,16.91,0,0,1,5.79,3.64,27.07,27.07,0,0,1,4.66,5.46,37.36,37.36,0,0,1,3.91,8.25,35.51,35.51,0,0,1,2,8.58,41.72,41.72,0,0,1,.43,5c0,1.15,0,3-.11,5.47s-.16,4.44-.27,6.05-.23,2.95-.37,4-.18,2.39-.33,4.18-.12,3.12-.16,3.8-.05,1.2-.05,1.56v.75a6.59,6.59,0,0,1-6.54,6.53,6.46,6.46,0,0,1-4.66-1.93,6.19,6.19,0,0,1-2-4.6v-.75a19.26,19.26,0,0,1,.11-1.93c0-.79.07-2.18.21-4.18s.18-3.47.32-4.61.16-2.23.27-3.7.2-3.37.27-5.73.11-3.86.11-4.71a35.91,35.91,0,0,0-.33-3.86,25.42,25.42,0,0,0-1.39-5.68,25,25,0,0,0-2.46-5.25,13.78,13.78,0,0,0-2.58-3,5.77,5.77,0,0,0-1.17-1,18.09,18.09,0,0,0-2.79-.32,6.13,6.13,0,0,0-2.89,1A7.81,7.81,0,0,0,460.8,743a18.86,18.86,0,0,0-2.25,4,19.26,19.26,0,0,0-1.39,4.5c-.36,2.07-.64,3.85-.86,5.35s-.43,3.61-.64,6.33a57.59,57.59,0,0,0,0,10.07q.21,3.86.43,5.57l.1.11a6.05,6.05,0,0,1,.75,4,7.14,7.14,0,0,1-1.71,3.7,6.29,6.29,0,0,1-2.25,3.75,6.58,6.58,0,0,1-8.84-.43,6.19,6.19,0,0,1-2-4.6V776.5c0-1.57-.08-3.89-.22-7s-.14-5.92-.21-8.35q0-3.23-.32-7-.33-4.07-.86-13-.54-9.75.11-13.29l.43-2.68A6.48,6.48,0,0,1,443.87,721.05Z"/><path class="cls-1" d="M506.34,721.05a6.57,6.57,0,0,1,9.16,1.66,6.26,6.26,0,0,1,1,4.93l-.43,2.78a3.71,3.71,0,0,0-.11,1.18,27.07,27.07,0,0,1,3.75-2.46,18.85,18.85,0,0,1,9.75-2.47,26.5,26.5,0,0,1,6.54,1.08,16.78,16.78,0,0,1,5.78,3.64,26.78,26.78,0,0,1,4.67,5.46,37.81,37.81,0,0,1,3.91,8.25,35,35,0,0,1,2,8.58,39.74,39.74,0,0,1,.43,5c0,1.15,0,3-.11,5.47s-.16,4.44-.26,6.05-.24,2.95-.38,4-.18,2.39-.32,4.18-.13,3.12-.16,3.8-.05,1.2-.05,1.56v.75a6.59,6.59,0,0,1-6.54,6.53,6.44,6.44,0,0,1-4.66-1.93,6.19,6.19,0,0,1-2-4.6v-.75c0-.5,0-1.15.1-1.93s.07-2.18.22-4.18.18-3.47.32-4.61.16-2.23.27-3.7.19-3.37.26-5.73.11-3.86.11-4.71a38,38,0,0,0-.32-3.86,26,26,0,0,0-1.39-5.68,24.48,24.48,0,0,0-2.47-5.25,13.49,13.49,0,0,0-2.57-3,5.5,5.5,0,0,0-1.18-1,17.92,17.92,0,0,0-2.78-.32,6.19,6.19,0,0,0-2.9,1,7.85,7.85,0,0,0-2.78,2.14,18.86,18.86,0,0,0-2.25,4,19.26,19.26,0,0,0-1.39,4.5q-.54,3.11-.86,5.35t-.64,6.33a57.59,57.59,0,0,0,0,10.07c.14,2.57.28,4.43.42,5.57l.11.11a6.11,6.11,0,0,1,.75,4,7.22,7.22,0,0,1-1.71,3.7,6.29,6.29,0,0,1-2.25,3.75,6.58,6.58,0,0,1-8.84-.43,6.17,6.17,0,0,1-2-4.6V776.5q0-2.36-.21-7t-.21-8.35q0-3.23-.33-7-.31-4.07-.85-13-.54-9.75.1-13.29l.43-2.68A6.53,6.53,0,0,1,506.34,721.05Z"/><path class="cls-1" d="M607.06,731.5a6.33,6.33,0,0,1,5,.1,6.4,6.4,0,0,1,3.43,3.7,6.2,6.2,0,0,1-.05,5l-1.5,3.22q-1.39,3.11-3.22,7.5t-3,7.71q-1.4,3.85-3.53,9.11t-3.33,8L598.49,781a45.06,45.06,0,0,0-1.93,5.25c-.72,2.36-1.39,4.54-2,6.54a37.72,37.72,0,0,1-3,6.75,42.21,42.21,0,0,1-4.39,6.1,19,19,0,0,1-6.64,5.25,15.8,15.8,0,0,1-6.86,1.4H571.7a6.19,6.19,0,0,1-4.61-2,6.48,6.48,0,0,1-1.93-4.66,6.17,6.17,0,0,1,2-4.6,6.44,6.44,0,0,1,4.66-1.93h1.93a3.65,3.65,0,0,0,1.39-.32,6.41,6.41,0,0,0,1.93-1.72,23.15,23.15,0,0,0,3-4.18,19.68,19.68,0,0,0,1.93-4.28q1-2.9,2-6.32l-.21-.43q-.64-1.29-2.57-6.22-1.93-4.71-6.11-15t-6.54-15.32l-2.46-5.25a6.19,6.19,0,0,1-.22-5,6.64,6.64,0,0,1,3.38-3.75A6.55,6.55,0,0,1,578,734.5l2.57,5.25q2.48,5.36,6.75,15.85,2.14,5.37,3.75,9.33c.29-.65.57-1.32.86-2,1.36-3.36,2.43-6.21,3.22-8.57.92-2.57,2.07-5.39,3.42-8.47s2.4-5.57,3.33-7.71l1.39-3.22A6.51,6.51,0,0,1,607.06,731.5Z"/><path class="cls-1" d="M675.85,710.6a6.58,6.58,0,0,1,9.27,1,6.11,6.11,0,0,1,1.44,4.82l-1,8.89q-1,8.58-1.18,20.15-.31,11.77-.11,21,.11,9.54,0,13c-.07,2.15-.1,3.43-.1,3.86v.86a6.78,6.78,0,0,1-6.65,6.64,6.19,6.19,0,0,1-4.6-2,6.46,6.46,0,0,1-1.93-4.66v-.86c0-.57,0-2,.1-4.29q.12-3.11,0-12.32-.11-4.17-.1-8.57c-.93.07-2,.18-3.11.32q-5.89.54-13.82.75a83.3,83.3,0,0,1-11-.32l-1.28-.22c0,4.08,0,7.36-.11,9.86q-.23,6.64-.22,9.33v8.78a6,6,0,0,1-1.87,4.72,6.49,6.49,0,0,1-4.66,1.92,6.31,6.31,0,0,1-4.61-1.92,6.69,6.69,0,0,1-2-4.61v-8.79c0-1.93.07-5.21.22-9.86q.21-6.63.11-21.43-.23-15,.21-23.57l.54-8.46a6.12,6.12,0,0,1,2.14-4.5,6.42,6.42,0,0,1,4.71-1.72,6.35,6.35,0,0,1,4.56,2.14,6,6,0,0,1,1.66,4.72l-.43,8.46q-.32,7.83-.21,21.76h.75l2.35.32a68,68,0,0,0,9,.21q7.39-.21,12.75-.75c2.5-.21,4-.36,4.61-.43q.33-11.89,1.29-20.89l1-8.89A6,6,0,0,1,675.85,710.6Z"/><path class="cls-1" d="M702.42,736.8a6.48,6.48,0,0,1,4.82-1.55,6.6,6.6,0,0,1,6,7.07l-.32,2.89c-.14,1.72-.18,4.18-.1,7.39V764c-.08,4.15-.15,7-.22,8.57s-.11,2.76-.11,3.76-.14,2-.21,2.67l-.11.86a6.58,6.58,0,0,1-2.46,4.45,6.12,6.12,0,0,1-4.82,1.44,6.39,6.39,0,0,1-4.4-2.46,6.65,6.65,0,0,1-1.5-4.82l.11-.86c.07-.5.14-1.21.21-2.14s.11-2.11.11-3.54.14-4.1.22-8V752.71a73.27,73.27,0,0,1,.21-8.57l.21-2.89A6.24,6.24,0,0,1,702.42,736.8Zm-1.28-18.11A6.59,6.59,0,0,1,712.39,714l.32.32a6.59,6.59,0,0,1-9.32,9.32l-.33-.32A6.36,6.36,0,0,1,701.14,718.69Z"/><path class="cls-1" d="M727.6,733.21a6.5,6.5,0,0,1,8.73-3.11,6.16,6.16,0,0,1,3.38,3.65l3.11,8.78q3.1,8.47,6.53,16.07,2,4.62,3.86,8.36,1.6-3.53,3.32-7.5,2.9-6.65,5-10.61,1.92-3.52,3.86-7.28c1.35-2.72,2.57-5,3.64-6.86l1.5-2.79a6.23,6.23,0,0,1,3.91-3.1,6.56,6.56,0,0,1,8.14,4.44,6.2,6.2,0,0,1-.48,5L780.53,741c-.93,1.79-2,3.93-3.32,6.43-1.36,2.72-2.71,5.32-4.07,7.82a85.67,85.67,0,0,0-4.5,9.43q-2.79,6.54-5.36,11.79l-.69,1.45c-.33.68-.56,1.14-.7,1.39l-.59,1.07c-.25.47-.45.82-.59,1.07a10.25,10.25,0,0,1-.59.91q-.37.54-.75,1l-.7.91a11.45,11.45,0,0,0-1,.59,18.3,18.3,0,0,1-2.2,1.07,10.61,10.61,0,0,1-3.05.86,5.26,5.26,0,0,1-3.16-.8,6.43,6.43,0,0,1-2.68-3.11c-.22-.43-1.18-2.29-2.9-5.57Q740.9,772,737.35,764t-6.85-17l-3.11-8.68A6.15,6.15,0,0,1,727.6,733.21Z"/><path class="cls-1" d="M840.64,763.32q-1.27,0-6.32.54a82.74,82.74,0,0,1-13.39.21q-7.18-.42-9.64-.86l-2.25-.32a37.57,37.57,0,0,0,1.17,4.61c.43,1.14.86,2.18,1.29,3.11a15.56,15.56,0,0,0,2,2.46,20.86,20.86,0,0,0,4.07,3.32,16.67,16.67,0,0,0,4.28,2,20.57,20.57,0,0,0,4.07.75,14.73,14.73,0,0,0,3.54-.22,19.25,19.25,0,0,0,3.11-.64l1.93-.75,2.35-1.18,1.4-.64a6.49,6.49,0,0,1,5-.16,6.19,6.19,0,0,1,3.75,3.32,6.47,6.47,0,0,1,.21,5,5.94,5.94,0,0,1-3.37,3.69l-1.29.65c-.85.42-1.68.82-2.46,1.17-1,.43-2.11.86-3.32,1.29a35.94,35.94,0,0,1-5,1.18,25.88,25.88,0,0,1-6.54.43,33.77,33.77,0,0,1-7-1.29,26.64,26.64,0,0,1-7.82-3.64,36.81,36.81,0,0,1-6.54-5.36,26.86,26.86,0,0,1-4.18-5.57,46.21,46.21,0,0,1-1.82-4.5,41.71,41.71,0,0,1-1.82-6.75,32.21,32.21,0,0,1,1.07-17.57,52.93,52.93,0,0,1,3.22-7,29.1,29.1,0,0,1,5.25-7,31.65,31.65,0,0,1,9.21-5.47q6.21-2.46,9.64-2.62a22.12,22.12,0,0,1,7.93,1.34,21.56,21.56,0,0,1,7.72,4.5,24.08,24.08,0,0,1,4.93,7.6,47.38,47.38,0,0,1,2.36,7.4,31.89,31.89,0,0,1,.64,7.39v.21a13.18,13.18,0,0,1-.16,2,20.55,20.55,0,0,1-.75,2.73,6.18,6.18,0,0,1-2.25,3A8,8,0,0,1,840.64,763.32Zm-30.1-13.5a.94.94,0,0,0,.42.11l2.25.32c1.29.14,4.11.36,8.47.64a82.68,82.68,0,0,0,11.25-.11l1.82-.21c-.07-.5-.14-1-.21-1.39a32.43,32.43,0,0,0-1.72-5A9.34,9.34,0,0,0,831,741a8.4,8.4,0,0,0-2.89-1.5,10.87,10.87,0,0,0-3.22-.75,32.55,32.55,0,0,0-5,1.72,19.7,19.7,0,0,0-5.15,2.78,14.74,14.74,0,0,0-2.78,3.75C811.43,748,811,749,810.54,749.82Z"/><path class="cls-2" d="M370.19,826.13a2.22,2.22,0,0,1-1.15,1.32,2.13,2.13,0,0,1-1.75.08,2.32,2.32,0,0,1-1.32-1.15l-.33-.78a8.24,8.24,0,0,0-1.15-1.56,5.62,5.62,0,0,0-1.71-1.42,2.58,2.58,0,0,0-1.53-.26,8.64,8.64,0,0,0-2.71,1,7.08,7.08,0,0,0-2.37,2.08,7.84,7.84,0,0,0-1.23,2.86,10.17,10.17,0,0,0-.22,3.24,8.62,8.62,0,0,0,.82,3,9.76,9.76,0,0,0,1.52,2.41,8.8,8.8,0,0,0,2.12,1.64,7.73,7.73,0,0,0,2.33.93,4.11,4.11,0,0,0,1.58,0,2.85,2.85,0,0,0,1-.39,6.19,6.19,0,0,0,1-.85,2.75,2.75,0,0,0,.6-.74c.17-.3.29-.54.37-.71l.15-.37a2.2,2.2,0,0,1,1.2-1.25,2.14,2.14,0,0,1,1.75,0,2.16,2.16,0,0,1,1.24,1.22,2.31,2.31,0,0,1,0,1.77l-.15.37q-.23.52-.63,1.26a9.89,9.89,0,0,1-1.26,1.67,11.66,11.66,0,0,1-1.71,1.41,7,7,0,0,1-2.58,1.1,8.83,8.83,0,0,1-3.36,0,11.79,11.79,0,0,1-3.79-1.48,13.12,13.12,0,0,1-3.21-2.49,15,15,0,0,1-2.29-3.57,14,14,0,0,1-1.26-4.6,15.4,15.4,0,0,1,.34-4.61,12.2,12.2,0,0,1,1.89-4.38,11.11,11.11,0,0,1,3.94-3.53,12.79,12.79,0,0,1,4.38-1.6,7.2,7.2,0,0,1,4.12.71A9.58,9.58,0,0,1,368,821.1a13,13,0,0,1,1.78,2.53l.33.78A2.1,2.1,0,0,1,370.19,826.13Z"/><path class="cls-2" d="M383,815a2.27,2.27,0,0,1,1.62-.66,2.11,2.11,0,0,1,1.59.68,2.24,2.24,0,0,1,.67,1.62v3q0,2.89.23,6c0,.22.05.43.07.63a1,1,0,0,1,.19-.15,9,9,0,0,1,2.86-1.3,8.83,8.83,0,0,1,3.15-.15,8.7,8.7,0,0,1,2.71.86,6.71,6.71,0,0,1,2.2,1.67,12.72,12.72,0,0,1,1.37,2,14.05,14.05,0,0,1,1,2.25,17.6,17.6,0,0,1,.62,2.4c.12.76.21,1.55.26,2.37s0,1.45,0,2,0,1.24-.09,1.84a15.32,15.32,0,0,1-.28,1.8l-.18.82a2.28,2.28,0,0,1-4.16.76,2,2,0,0,1-.3-1.69l.15-.82a12.29,12.29,0,0,0,.22-1.33,13.33,13.33,0,0,0,.08-1.41c0-.52,0-1.12,0-1.79a15.81,15.81,0,0,0-.19-1.82,11.69,11.69,0,0,0-.44-1.69,11.2,11.2,0,0,0-.71-1.57,6.81,6.81,0,0,0-.78-1.19,2.91,2.91,0,0,0-.82-.63,3.82,3.82,0,0,0-1.3-.41,4.26,4.26,0,0,0-1.37.07,4.15,4.15,0,0,0-1.41.67,3.74,3.74,0,0,0-1.15,1.26,7.29,7.29,0,0,0-.86,2.31c-.14.62-.26,1.16-.33,1.63s0,.68,0,.93c.05.82.08,1.51.11,2.08s.08,1.05.11,1.52.07,1,.07,1.23v.33a2.59,2.59,0,0,1-.22,1,2.28,2.28,0,0,1-2.84,1.6,2.21,2.21,0,0,1-1.36-1.08l-.14-.26a3.48,3.48,0,0,1-.34-.74,3.86,3.86,0,0,1-.13-.54c0-.11,0-.32,0-.63V840c0-.79,0-1.5,0-2.11a17.59,17.59,0,0,1,.07-2.27,7.69,7.69,0,0,1,.11-.78c0-.74-.06-1.68-.11-2.82q-.08-2.82-.33-6c-.18-2.23-.26-4.38-.26-6.46v-3A2.15,2.15,0,0,1,383,815Z"/><path class="cls-2" d="M414.4,826.06a2.24,2.24,0,0,1,1.67-.54,2.3,2.3,0,0,1,2.08,2.45l-.11,1c-.05.59-.06,1.44,0,2.56v3.93c0,1.44-.05,2.43-.07,3s0,.95,0,1.3-.05.68-.07.92l0,.3a2.26,2.26,0,0,1-.86,1.54,2.09,2.09,0,0,1-1.67.5,2.18,2.18,0,0,1-1.52-.85,2.28,2.28,0,0,1-.52-1.67l0-.3c0-.17.05-.42.07-.74s0-.73,0-1.23.05-1.42.07-2.78v-3.86a25.35,25.35,0,0,1,.08-3l.07-1A2.14,2.14,0,0,1,414.4,826.06Zm-.45-6.28a2.29,2.29,0,0,1,2.29-2.28,2.17,2.17,0,0,1,1.61.67l.11.11a2.17,2.17,0,0,1,.67,1.61,2.19,2.19,0,0,1-.67,1.62,2.17,2.17,0,0,1-1.61.67,2.2,2.2,0,0,1-1.62-.67l-.11-.11A2.23,2.23,0,0,1,414,819.78Z"/><path class="cls-2" d="M431.48,815.92a2.2,2.2,0,0,1,1.64-.61,2.17,2.17,0,0,1,1.58.76,2.28,2.28,0,0,1,.61,1.65l-.11,2.12c-.08,1.39-.11,3.8-.11,7.24v8.3c0,2.07,0,3.47,0,4.22s0,1.46,0,1.93l-.12,1c0,.17-.05.32-.07.45v.26a2.29,2.29,0,0,1-.78,1.56,2.18,2.18,0,0,1-1.65.57,2.12,2.12,0,0,1-1.56-.78,2.34,2.34,0,0,1-.58-1.65l0-.26a4.77,4.77,0,0,1,.07-.78c0-.2.05-.46.08-.78s0-.78,0-1.45,0-2.18,0-4.25v-8.34c0-3.51,0-6,.11-7.46l.11-2.12A2.21,2.21,0,0,1,431.48,815.92Z"/><path class="cls-2" d="M462.55,816.87a2.18,2.18,0,0,1,1.62-.65,2.22,2.22,0,0,1,1.59.7,2.09,2.09,0,0,1,.63,1.62l0,2.45c0,1.56,0,3.44.11,5.65s.11,4.82.11,7.65-.09,4.87-.19,6.09-.16,1.84-.18,2.26v1.53a2.14,2.14,0,0,1-.69,1.59,2.23,2.23,0,0,1-1.61.67,2.14,2.14,0,0,1-1.6-.69,2.2,2.2,0,0,1-.67-1.61v-1.6a.92.92,0,0,1,0-.26,10.18,10.18,0,0,1-1.75,1.08,8.91,8.91,0,0,1-5,.41,10,10,0,0,1-5.39-2.34C448,840,447.16,837.85,447,835a9.88,9.88,0,0,1,2.23-7.13,15,15,0,0,1,4-3.45l1.48-.78a2.19,2.19,0,0,1,1.23-.3l.15,0,.44-.12a5.83,5.83,0,0,1,2,0,8.76,8.76,0,0,1,2.16.67,7,7,0,0,1,1.15.55q0-1.89,0-3.45l0-2.42A2.24,2.24,0,0,1,462.55,816.87Zm-6,10.92-1.11.59a12.12,12.12,0,0,0-2.71,2.41,5.47,5.47,0,0,0-1.11,3.94c.09,1.64.44,2.73,1,3.27a5.65,5.65,0,0,0,2.93,1.23,5.52,5.52,0,0,0,2.45,0,4.19,4.19,0,0,0,1.34-1,13.85,13.85,0,0,0,1.15-1.45,13.52,13.52,0,0,0,.78-1.63,7,7,0,0,0,.44-1.82,6.18,6.18,0,0,0-.11-1.56,7.58,7.58,0,0,0-.41-1.48,4.52,4.52,0,0,0-.29-.67l-.63-.71c-.23-.22-.41-.4-.56-.52s-.41-.21-.86-.41a5.45,5.45,0,0,0-1-.33,1.23,1.23,0,0,0-.29,0l-.45.11A2,2,0,0,1,456.51,827.79Z"/><path class="cls-2" d="M505.09,842.53l-.26-.93a11.69,11.69,0,0,1-.26-2.76c0-1.18,0-2.67.11-4.48.15-3.61.24-6.45.26-8.5a28.63,28.63,0,0,0,0-3.53c-.1-.62-.17-1-.19-1.19a3.3,3.3,0,0,1,.13-1.41,1.84,1.84,0,0,1,.59-.89,3.6,3.6,0,0,1,.78-.47,2.46,2.46,0,0,1,.69-.2l.3,0a9.69,9.69,0,0,1,3.93-.15,15.53,15.53,0,0,1,4.53,1.3,16,16,0,0,1,3.24,1.82,11.7,11.7,0,0,1,2.19,2.58,13.52,13.52,0,0,1,1.65,3.62,14.68,14.68,0,0,1,.54,4.28,21.36,21.36,0,0,1-.41,3.93,11.67,11.67,0,0,1-1.93,4.12,10.64,10.64,0,0,1-3.83,3.31,19.31,19.31,0,0,1-3.86,1.45c-1.11.27-2.09.47-2.93.59s-1.51.21-2.08.26l-.75.08a2.36,2.36,0,0,1-1.65-.58,2.19,2.19,0,0,1-.8-1.54A2.16,2.16,0,0,1,505.09,842.53Zm4.2-2,.37-.08c.72-.1,1.57-.26,2.56-.48a13.51,13.51,0,0,0,2.82-1.12,6,6,0,0,0,2.19-1.89,6.56,6.56,0,0,0,1.16-2.38,16.69,16.69,0,0,0,.33-3.12,9.93,9.93,0,0,0-.33-2.89,9.3,9.3,0,0,0-1.1-2.38,6.78,6.78,0,0,0-1.28-1.52,11.83,11.83,0,0,0-2.23-1.23,11.58,11.58,0,0,0-3.23-.93,8.35,8.35,0,0,0-1-.07c.05.79.05,2,0,3.53q0,3.07-.26,8.58a43.16,43.16,0,0,0,0,5.9Z"/><path class="cls-2" d="M550.7,835.25c-.3,0-1,.06-2.19.19a28.37,28.37,0,0,1-4.65.07c-1.65-.1-2.77-.2-3.34-.3l-.78-.11a14.1,14.1,0,0,0,.41,1.6q.23.6.45,1.08a5,5,0,0,0,.7.85,7.36,7.36,0,0,0,1.41,1.15,5.94,5.94,0,0,0,1.49.71,7.36,7.36,0,0,0,1.41.26,5.11,5.11,0,0,0,1.22-.08,6,6,0,0,0,1.08-.22l.67-.26.82-.41.48-.22a2.25,2.25,0,0,1,1.73-.06,2.17,2.17,0,0,1,1.3,1.16,2.23,2.23,0,0,1,.07,1.74,2.07,2.07,0,0,1-1.17,1.28l-.44.23-.86.4c-.35.15-.73.3-1.15.45a13.15,13.15,0,0,1-1.75.41,8.8,8.8,0,0,1-2.26.15,11.48,11.48,0,0,1-2.41-.45,9.5,9.5,0,0,1-2.72-1.26,13.25,13.25,0,0,1-2.26-1.86,9.38,9.38,0,0,1-1.45-1.93q-.33-.71-.63-1.56a15,15,0,0,1-.63-2.34,10.88,10.88,0,0,1-.23-3.3,10.68,10.68,0,0,1,.6-2.79,17.82,17.82,0,0,1,1.11-2.41,10.1,10.1,0,0,1,1.82-2.42,10.91,10.91,0,0,1,3.2-1.89,11.09,11.09,0,0,1,3.34-.91,7.78,7.78,0,0,1,2.75.46,7.48,7.48,0,0,1,2.67,1.56,8.37,8.37,0,0,1,1.71,2.64,16.68,16.68,0,0,1,.82,2.56,11.3,11.3,0,0,1,.22,2.56v.08a3.88,3.88,0,0,1-.06.7,5.4,5.4,0,0,1-.26,1,2,2,0,0,1-.78,1A2.74,2.74,0,0,1,550.7,835.25Zm-10.44-4.68a.28.28,0,0,0,.15,0l.78.11c.45,0,1.42.12,2.93.22a27.72,27.72,0,0,0,3.9,0l.63-.08c0-.17,0-.33-.07-.48a11.26,11.26,0,0,0-.59-1.75,3.13,3.13,0,0,0-.64-1.07,2.8,2.8,0,0,0-1-.52,3.5,3.5,0,0,0-1.11-.26,11.47,11.47,0,0,0-1.75.59,6.49,6.49,0,0,0-1.78,1,5,5,0,0,0-1,1.3Z"/><path class="cls-2" d="M565.18,824.82a2.2,2.2,0,0,1,1.28-1.17,2.22,2.22,0,0,1,1.75.09,2.13,2.13,0,0,1,1.17,1.26l1.07,3q1.08,2.93,2.27,5.57c.47,1.06.91,2,1.34,2.89.37-.81.75-1.68,1.15-2.59.67-1.54,1.25-2.77,1.74-3.68s.89-1.66,1.34-2.53.89-1.73,1.26-2.37l.52-1a2.28,2.28,0,0,1,3.09-.89,2.23,2.23,0,0,1,1.09,1.35,2.13,2.13,0,0,1-.17,1.73l-.55,1c-.33.62-.71,1.36-1.15,2.22s-1,1.85-1.42,2.72a31.39,31.39,0,0,0-1.56,3.26c-.64,1.52-1.26,2.88-1.85,4.09l-.24.5c-.12.24-.2.4-.25.48l-.2.37-.2.38c0,.08-.12.19-.21.31s-.17.24-.26.35l-.24.32a2.93,2.93,0,0,0-.35.21,7.91,7.91,0,0,1-.76.37,3.6,3.6,0,0,1-1.06.29,1.83,1.83,0,0,1-1.1-.27,2.38,2.38,0,0,1-.93-1.08c-.07-.15-.41-.79-1-1.93s-1.37-2.79-2.19-4.65-1.63-3.82-2.38-5.9l-1.07-3A2.11,2.11,0,0,1,565.18,824.82Z"/><path class="cls-2" d="M611.79,835.25c-.3,0-1,.06-2.19.19a28.25,28.25,0,0,1-4.64.07c-1.66-.1-2.78-.2-3.35-.3l-.78-.11a14.1,14.1,0,0,0,.41,1.6q.22.6.45,1.08a5.59,5.59,0,0,0,.7.85,7.36,7.36,0,0,0,1.41,1.15,5.94,5.94,0,0,0,1.49.71,7.36,7.36,0,0,0,1.41.26,5.19,5.19,0,0,0,1.23-.08,6,6,0,0,0,1.07-.22l.67-.26.82-.41.48-.22a2.25,2.25,0,0,1,1.73-.06,2.14,2.14,0,0,1,1.3,1.16,2.23,2.23,0,0,1,.07,1.74,2.07,2.07,0,0,1-1.17,1.28l-.44.23c-.3.14-.58.28-.86.4s-.73.3-1.15.45a13,13,0,0,1-1.74.41,8.91,8.91,0,0,1-2.27.15,11.48,11.48,0,0,1-2.41-.45,9.33,9.33,0,0,1-2.71-1.26,13,13,0,0,1-2.27-1.86,9.38,9.38,0,0,1-1.45-1.93q-.33-.71-.63-1.56a15,15,0,0,1-.63-2.34,10.56,10.56,0,0,1-.22-3.3,10.3,10.3,0,0,1,.59-2.79,16.81,16.81,0,0,1,1.12-2.41,9.81,9.81,0,0,1,1.81-2.42,10.91,10.91,0,0,1,3.2-1.89,11.09,11.09,0,0,1,3.34-.91,7.78,7.78,0,0,1,2.75.46,7.48,7.48,0,0,1,2.67,1.56,8.37,8.37,0,0,1,1.71,2.64,15.65,15.65,0,0,1,.82,2.56,10.76,10.76,0,0,1,.22,2.56v.08a5.12,5.12,0,0,1-.05.7,8.05,8.05,0,0,1-.26,1,2.14,2.14,0,0,1-.78,1A2.8,2.8,0,0,1,611.79,835.25Zm-10.44-4.68a.28.28,0,0,0,.15,0l.78.11c.45,0,1.43.12,2.94.22a27.72,27.72,0,0,0,3.9,0l.63-.08c0-.17,0-.33-.08-.48a11.26,11.26,0,0,0-.59-1.75,3.3,3.3,0,0,0-.63-1.07,3,3,0,0,0-1-.52,3.5,3.5,0,0,0-1.11-.26,11.47,11.47,0,0,0-1.75.59,6.49,6.49,0,0,0-1.78,1,4.72,4.72,0,0,0-1,1.3C601.66,830,601.5,830.28,601.35,830.57Z"/><path class="cls-2" d="M627.2,815.92a2.19,2.19,0,0,1,1.63-.61,2.16,2.16,0,0,1,1.58.76,2.25,2.25,0,0,1,.62,1.65l-.11,2.12q-.12,2.08-.12,7.24v8.3c0,2.07,0,3.47,0,4.22s0,1.46,0,1.93-.08.75-.11,1-.05.32-.07.45v.26a2.29,2.29,0,0,1-.78,1.56,2.18,2.18,0,0,1-1.65.57,2.08,2.08,0,0,1-1.56-.78,2.34,2.34,0,0,1-.58-1.65l0-.26a4.77,4.77,0,0,1,.07-.78c0-.2.05-.46.08-.78s0-.78,0-1.45,0-2.18,0-4.25v-8.34c0-3.51,0-6,.11-7.46l.11-2.12A2.17,2.17,0,0,1,627.2,815.92Z"/><path class="cls-2" d="M654.57,822.74a2.34,2.34,0,0,1,1-.08l.29,0a4.61,4.61,0,0,1,1.08.3,7.21,7.21,0,0,1,1.3.66,8.58,8.58,0,0,1,1.52,1.16,11.06,11.06,0,0,1,1.19,1.41,8.93,8.93,0,0,1,.82,1.19c.17.32.41.81.7,1.48s.53,1.26.71,1.78a7.33,7.33,0,0,1,.22,3.05,12.87,12.87,0,0,1-.63,2.93,9.84,9.84,0,0,1-1.37,2.49,16,16,0,0,1-2.08,2.12,14,14,0,0,1-2.64,1.74,8.76,8.76,0,0,1-3.23,1,11.25,11.25,0,0,1-3.68-.37,8.48,8.48,0,0,1-3.9-2.08,10.11,10.11,0,0,1-2.38-3.6,12.08,12.08,0,0,1-.78-4.87,11.08,11.08,0,0,1,1.9-5.61,9,9,0,0,1,4.79-3.75,18,18,0,0,1,3.68-.85l1.07-.11Zm.48,4.45a2.18,2.18,0,0,1-.44.11l-1.11.08a18.92,18.92,0,0,0-2.72.67,4.62,4.62,0,0,0-2.34,1.93,6.47,6.47,0,0,0-1.15,3.23,7.92,7.92,0,0,0,.45,3,5.46,5.46,0,0,0,1.3,2,4.14,4.14,0,0,0,1.82,1,6.84,6.84,0,0,0,2.15.26,4.16,4.16,0,0,0,1.6-.52,10.58,10.58,0,0,0,1.82-1.19,7.43,7.43,0,0,0,1.3-1.34,5.42,5.42,0,0,0,.78-1.33,8.21,8.21,0,0,0,.33-1.79,7.18,7.18,0,0,0,0-1.15c-.15-.39-.33-.85-.56-1.37a11.59,11.59,0,0,0-.52-1.08,7.26,7.26,0,0,0-.52-.74,5.26,5.26,0,0,0-.67-.82,4.83,4.83,0,0,0-.72-.54,3.9,3.9,0,0,0-.58-.31.21.21,0,0,0-.11,0Z"/><path class="cls-2" d="M676.56,822.14a2.25,2.25,0,0,1,1.67-.5,2.2,2.2,0,0,1,1.54.84,2.09,2.09,0,0,1,.5,1.67l-.07.63v.48a7,7,0,0,1,1.52-.78c.1,0,.35-.11.76-.26l.78-.28.63-.18a2.74,2.74,0,0,1,.73-.13h.65a3.84,3.84,0,0,1,.76.07l.63.15a3.32,3.32,0,0,1,.78.33l.26.08.67.3a6.49,6.49,0,0,1,1.78,1.07,10.89,10.89,0,0,1,1.19,1.15,13,13,0,0,1,.93,1.45c.24.5.46,1,.63,1.45a13.61,13.61,0,0,1,.41,1.67,13.92,13.92,0,0,1,.29,2,12.25,12.25,0,0,1-.18,3.07,13.45,13.45,0,0,1-.74,2.88,7.37,7.37,0,0,1-1.75,2.34,8.51,8.51,0,0,1-3.08,1.82,13.11,13.11,0,0,1-3.79.67A7.14,7.14,0,0,1,679.9,843v2.31c0,.86,0,1.62-.07,2.26s0,1.21,0,1.86,0,1.19,0,1.48v.45a2.11,2.11,0,0,1-.74,1.56,2.22,2.22,0,0,1-1.63.59,2.19,2.19,0,0,1-1.58-.72,2.15,2.15,0,0,1-.62-1.62l0-.44v-1.3c0-.72,0-1.4,0-2s0-1.34.07-2.16,0-1.88,0-3.19,0-3.53.08-6.58.09-5.49.15-7.42.06-3.26.11-3.75l.07-.64A2.1,2.1,0,0,1,676.56,822.14Zm9,6.17-.33-.08a11.1,11.1,0,0,0-2,.56,4.93,4.93,0,0,0-2.49,2.86,6.36,6.36,0,0,0-.59,4.34,5.47,5.47,0,0,0,1.71,2.83,3.22,3.22,0,0,0,2,.78,8.42,8.42,0,0,0,2.49-.41,4.22,4.22,0,0,0,1.45-.82,3.29,3.29,0,0,0,.67-.85,8.74,8.74,0,0,0,.43-1.8,9.78,9.78,0,0,0,.16-1.92,13.21,13.21,0,0,0-.22-1.52,8.34,8.34,0,0,0-.3-1.15,3.63,3.63,0,0,0-.33-.78,7.66,7.66,0,0,0-.41-.67l-.59-.56a1.85,1.85,0,0,0-.6-.33l-.67-.3Z"/><path class="cls-2" d="M705.92,822.2a2.13,2.13,0,0,1,1.54-.8,2.27,2.27,0,0,1,1.67.54,2.16,2.16,0,0,1,.81,1.54l.15,2,.26-.22a6.38,6.38,0,0,1,2.49-1.52,7.64,7.64,0,0,1,2.56-.45,10.63,10.63,0,0,1,1.53.23,5.36,5.36,0,0,1,1.93,1.18,8.74,8.74,0,0,1,1.33,1.45,6.35,6.35,0,0,1,2.31-2,6.26,6.26,0,0,1,3.53-.67,7.22,7.22,0,0,1,3,1,7.49,7.49,0,0,1,3.31,3.87,11.37,11.37,0,0,1,.78,2.93,29.26,29.26,0,0,1,.33,3c0,.89.08,1.79.08,2.69s0,1.75-.08,2.53-.1,1.42-.15,1.91-.08.77-.11,1l0,.41a2.21,2.21,0,0,1-.86,1.52,2.17,2.17,0,0,1-1.67.5,2.14,2.14,0,0,1-1.52-.83,2.28,2.28,0,0,1-.52-1.67l0-.41c0-.27.09-.64.14-1.11s.1-.95.13-1.64.06-1.45.06-2.26,0-1.63-.08-2.42-.13-1.61-.25-2.52a7.91,7.91,0,0,0-.49-1.9,4,4,0,0,0-.59-1,3.74,3.74,0,0,0-.89-.73,2.6,2.6,0,0,0-1.08-.33,2,2,0,0,0-1,.22,2.67,2.67,0,0,0-.95,1,12.74,12.74,0,0,0-1.08,2.93,30.06,30.06,0,0,0-.59,3.08v.56c0,.47,0,1,0,1.64v4a1.3,1.3,0,0,1,0,.55,2.17,2.17,0,0,1-.77,1.58,2.21,2.21,0,0,1-3.21-.18,2.23,2.23,0,0,1-.56-1.66v-.07l-.14-.78a20.51,20.51,0,0,1,0-4.46c0-.52.11-1,.19-1.56v-.74c0-.47,0-1,0-1.48s-.07-1-.12-1.49a8.23,8.23,0,0,0-.29-1.23,3.41,3.41,0,0,0-.45-.92,4.78,4.78,0,0,0-.74-.86,2,2,0,0,0-.26-.22,2.41,2.41,0,0,1-.41,0,3.07,3.07,0,0,0-.85.22,2.11,2.11,0,0,0-.75.38,3,3,0,0,0-.55.85,14.38,14.38,0,0,0-.78,2,20,20,0,0,0-.6,2.08c-.1.59-.18,1.69-.26,3.3a14.29,14.29,0,0,0,.11,3.27l.26,1.23a2.09,2.09,0,0,1-.14,1.45,2.38,2.38,0,0,1-1,1.07,2.31,2.31,0,0,1-1.3.63,2.25,2.25,0,0,1-1.69-.46,2.13,2.13,0,0,1-.87-1.47l-.07-.37a8.09,8.09,0,0,1-.08-1.15c0-.25,0-.9-.11-2s-.19-2.8-.33-5-.31-4.48-.49-6.68l-.29-3.31A2.18,2.18,0,0,1,705.92,822.2Z"/><path class="cls-2" d="M760.94,835.25c-.3,0-1,.06-2.2.19a28.23,28.23,0,0,1-4.64.07c-1.66-.1-2.77-.2-3.34-.3l-.78-.11a12.22,12.22,0,0,0,.41,1.6c.15.4.3.76.44,1.08a5.86,5.86,0,0,0,.71.85,7.36,7.36,0,0,0,1.41,1.15,5.94,5.94,0,0,0,1.49.71,7.36,7.36,0,0,0,1.41.26,5.11,5.11,0,0,0,1.22-.08,6,6,0,0,0,1.08-.22l.67-.26.82-.41.48-.22a2.25,2.25,0,0,1,1.73-.06,2.19,2.19,0,0,1,1.3,1.16,2.23,2.23,0,0,1,.07,1.74,2.07,2.07,0,0,1-1.17,1.28l-.45.23-.85.4c-.35.15-.73.3-1.15.45a13.15,13.15,0,0,1-1.75.41,8.8,8.8,0,0,1-2.26.15,11.57,11.57,0,0,1-2.42-.45,9.45,9.45,0,0,1-2.71-1.26,13.25,13.25,0,0,1-2.26-1.86,9.38,9.38,0,0,1-1.45-1.93q-.33-.71-.63-1.56a13.07,13.07,0,0,1-.63-2.34,11,11,0,0,1,.37-6.09,17.82,17.82,0,0,1,1.11-2.41,10.1,10.1,0,0,1,1.82-2.42,10.78,10.78,0,0,1,3.2-1.89,11.09,11.09,0,0,1,3.34-.91,7.78,7.78,0,0,1,2.75.46,7.48,7.48,0,0,1,2.67,1.56,8.37,8.37,0,0,1,1.71,2.64,16.68,16.68,0,0,1,.82,2.56,11.3,11.3,0,0,1,.22,2.56v.08a3.88,3.88,0,0,1-.06.7,5.4,5.4,0,0,1-.26,1,2,2,0,0,1-.78,1A2.74,2.74,0,0,1,760.94,835.25Zm-10.44-4.68a.28.28,0,0,0,.15,0l.78.11c.44,0,1.42.12,2.93.22a27.72,27.72,0,0,0,3.9,0l.63-.08c0-.17,0-.33-.07-.48a11.4,11.4,0,0,0-.6-1.75,3,3,0,0,0-.63-1.07,2.8,2.8,0,0,0-1-.52,3.62,3.62,0,0,0-1.11-.26,11.47,11.47,0,0,0-1.75.59,6.49,6.49,0,0,0-1.78,1,5,5,0,0,0-1,1.3Z"/><path class="cls-2" d="M776.46,820.6a2.21,2.21,0,0,1,1.71-.37,2.27,2.27,0,0,1,1.82,2.65l-.15,1a1.12,1.12,0,0,0,0,.41,9.77,9.77,0,0,1,1.3-.86,6.6,6.6,0,0,1,3.38-.85,9.19,9.19,0,0,1,2.27.37,6,6,0,0,1,2,1.26,9.43,9.43,0,0,1,1.62,1.9,12.51,12.51,0,0,1,1.35,2.86,12.15,12.15,0,0,1,.71,3,13.83,13.83,0,0,1,.15,1.74c0,.4,0,1,0,1.9s-.06,1.54-.09,2.1-.08,1-.13,1.39-.07.83-.11,1.45-.05,1.08-.06,1.32,0,.41,0,.53v.27a2.29,2.29,0,0,1-2.26,2.26,2.24,2.24,0,0,1-1.62-.67,2.14,2.14,0,0,1-.69-1.59v-.27c0-.17,0-.39,0-.66s0-.76.07-1.45.07-1.2.12-1.6.05-.77.09-1.28.07-1.17.09-2,0-1.33,0-1.63,0-.72-.11-1.34a9.19,9.19,0,0,0-.48-2,8.91,8.91,0,0,0-.86-1.82,5,5,0,0,0-.89-1,1.81,1.81,0,0,0-.41-.33,5.28,5.28,0,0,0-1-.11,2.19,2.19,0,0,0-1,.33,2.66,2.66,0,0,0-1,.75,6.21,6.21,0,0,0-.78,1.37,6.44,6.44,0,0,0-.49,1.56c-.12.72-.22,1.34-.29,1.86s-.15,1.25-.23,2.19a22.28,22.28,0,0,0,0,3.49c.05.89.1,1.53.15,1.93l0,0A2.13,2.13,0,0,1,781,842a2.48,2.48,0,0,1-.59,1.28,2.18,2.18,0,0,1-.78,1.3,2.29,2.29,0,0,1-3.07-.15,2.13,2.13,0,0,1-.68-1.59v-3c0-.54,0-1.35-.08-2.41s0-2.06-.07-2.9,0-1.55-.11-2.42-.18-2.43-.3-4.49a23.92,23.92,0,0,1,0-4.6l.15-.93A2.29,2.29,0,0,1,776.46,820.6Z"/><path class="cls-2" d="M809.18,823.7l2.11.22,1.34.15a2.21,2.21,0,0,1,1.52.86,2.16,2.16,0,0,1,.49,1.67,2.21,2.21,0,0,1-.86,1.52,2.27,2.27,0,0,1-1.67.52l-1.34-.15c-.66-.1-1.23-.17-1.7-.22-.05,2.18-.09,4-.11,5.53-.08,2-.12,3.37-.12,4.24a14.16,14.16,0,0,0,.15,2.11,3.88,3.88,0,0,0,.19.93l0,0a4.07,4.07,0,0,0,.67.26,1.05,1.05,0,0,0,.6,0,3.64,3.64,0,0,0,1.19-.56l1.07-.71a2.31,2.31,0,0,1,1.73-.29,2.13,2.13,0,0,1,1.45,1,2.34,2.34,0,0,1-.69,3.18l-1.08.66a8.78,8.78,0,0,1-2.71,1.23,5.72,5.72,0,0,1-3-.19,6.16,6.16,0,0,1-2-1,4.85,4.85,0,0,1-1.34-1.56,7.68,7.68,0,0,1-.63-2.34,21.11,21.11,0,0,1-.18-2.82c0-.89,0-2.33.11-4.31s.1-4.4.15-7.28.11-5,.18-6.35l.08-1.89a2.17,2.17,0,0,1,.74-1.58,2.12,2.12,0,0,1,1.63-.59,2.23,2.23,0,0,1,1.58.76,2.18,2.18,0,0,1,.61,1.63l-.07,1.9C809.24,821.05,809.2,822.19,809.18,823.7Z"/><path class="cls-3" d="M573.26,422.81c-17.74-2.91-33.91-21-46.38-32.71-25.77-24.14-61.18-61.57-68.62-97.28-9-43.17,27-82.32,71.35-66.89,24.54,8.52,38.84,55.91,45.06,78.48,6.79,24.67,11.1,47.67,9.81,73.38-.32,6.48-3.85,51.86-11.22,45"/><path class="cls-4" d="M591.57,425.28c-9.42-15.32-6.31-39.41-5.63-56.49,1.38-35.27,6.5-86.54,28.62-115.55,26.75-35.07,79.89-33.48,97.27,10.16,9.62,24.14-16.84,66-29.83,85.44-14.2,21.29-28.77,39.59-49,55.45-5.11,4-41.74,31-41.38,21"/><path class="cls-5" d="M616,426.64c5.54-17.11,25.86-30.38,39.28-41,27.72-21.87,70-51.27,106.46-53.29,44-2.45,77.35,39,55.46,80.56-12.11,23-61.1,30-84.35,32.81-25.41,3-48.79,3.84-74-1.28-6.36-1.29-50.69-11.58-42.83-17.83"/><path class="cls-6" d="M610.84,444.37c16.55-7,39.89-.34,56.68,2.88,34.66,6.65,84.6,19.39,110,45.61,30.68,31.69,21.14,84-24.6,94.65-25.3,5.89-62.69-26.53-80-42.29C654,528,638,510.85,625.39,488.41c-3.19-5.64-24.43-45.89-14.55-44"/><path class="cls-7" d="M590.2,476c17.78,2.76,34.11,20.72,46.7,32.3,26,23.91,61.71,61,69.49,96.66,9.4,43.09-26.24,82.55-70.75,67.54-24.61-8.32-39.35-55.56-45.76-78.08-7-24.61-11.54-47.56-10.48-73.29.26-6.49,3.39-51.89,10.8-45.13"/><path class="cls-8" d="M571.89,473.68c9.55,15.24,6.66,39.35,6.14,56.44-1.06,35.28-5.73,86.59-27.58,115.81-26.43,35.31-79.59,34.19-97.37-9.29-9.83-24,16.24-66.11,29.07-85.71,14-21.42,28.41-39.85,48.55-55.88,5.07-4.05,41.45-31.41,41.19-21.37"/><path class="cls-9" d="M555.62,469.82C550.24,487,530,500.43,516.7,511.13c-27.52,22.12-69.55,51.9-106,54.26-44,2.84-77.69-38.31-56.18-80.06,11.9-23.1,60.82-30.59,84-33.57,25.39-3.26,48.76-4.28,74,.61,6.37,1.23,50.78,11.13,43,17.45"/><path class="cls-10" d="M552.45,454.77c-16.5,7.17-39.9.7-56.71-2.37C461,446.06,411,433.78,385.37,407.79c-31-31.41-21.9-83.81,23.74-94.88,25.25-6.12,62.93,26,80.4,41.57,19.07,17.06,35.14,34,48,56.37,3.23,5.62,24.84,45.68,15,43.92"/><g class="cls-11"><path class="cls-12" d="M576,420.08c-24.17-13.28-49.33-48.45-64.12-70.95-7.31-11.11-23.6-32.26-12.31-45,8.35-9.48,23.45-6.45,32.77-.35,18.89,12.36,23.11,39.07,28.61,59,2.74,9.88,5.9,20.29,8.3,30,1.21,4.84,2,10.1,3,15.08.63,3.1,2,15.18,2.43,10.92"/><path class="cls-12" d="M595.41,425.56c-5.78-27,4.35-69,11.67-94.92,3.63-12.81,8.94-39,26-38.79,12.62.13,20.22,13.52,21.71,24.56,3,22.37-14.41,43-25.88,60.26-5.68,8.53-11.47,17.73-17.21,25.87-2.87,4.09-6.36,8.09-9.47,12.11-1.93,2.5-10.18,11.41-6.66,9"/><path class="cls-12" d="M618.3,429.75c16.75-21.92,55.29-41.52,79.75-52.79,12.09-5.56,35.43-18.5,46.35-5.43,8.11,9.68,2.87,24.15-4.56,32.46-15.05,16.82-42.09,17-62.62,19.45-10.18,1.22-20.94,2.8-30.86,3.73-5,.47-10.27.42-15.35.66-3.16.15-15.3-.32-11.16.77"/><path class="cls-12" d="M610,448.13c27.53-1.69,67.58,14.63,92.1,25.74,12.12,5.5,37.18,14.67,34.46,31.49-2,12.46-16.39,18-27.53,17.8-22.57-.37-40.41-20.7-55.71-34.62-7.58-6.88-15.81-14-23-20.88-3.61-3.46-7-7.5-10.55-11.17-2.18-2.29-9.76-11.79-7.88-7.93"/><path class="cls-12" d="M587.5,478.74c24.3,13.07,49.76,48,64.77,70.37,7.41,11,23.89,32,12.71,44.91-8.27,9.54-23.39,6.66-32.76.64-19-12.19-23.47-38.87-29.15-58.74-2.83-9.87-6.07-20.24-8.56-29.89-1.27-4.82-2-10.08-3.1-15-.65-3.09-2.1-15.16-2.52-10.91"/><path class="cls-12" d="M568,473.44c6,26.93-3.72,69.05-10.82,95-3.5,12.84-8.59,39-25.62,39-12.62,0-20.34-13.33-21.94-24.35-3.22-22.35,14-43.18,25.34-60.49,5.61-8.58,11.32-17.84,17-26,2.83-4.11,6.28-8.14,9.35-12.19,1.92-2.52,10.09-11.51,6.6-9"/><path class="cls-12" d="M553.3,466.73c-16.55,22.07-54.92,42-79.27,53.5-12,5.67-35.25,18.82-46.3,5.85-8.2-9.6-3.08-24.13,4.26-32.5,14.91-16.95,41.94-17.37,62.46-20,10.16-1.31,20.91-3,30.82-4,5-.52,10.27-.51,15.34-.8,3.16-.18,15.3.19,11.15-.87"/><path class="cls-12" d="M553.26,451c-27.51,1.93-67.7-14-92.33-24.91-12.17-5.38-37.3-14.33-34.73-31.17,1.9-12.48,16.22-18.13,27.37-18.05,22.57.16,40.58,20.33,56,34.11,7.64,6.82,15.94,13.86,23.19,20.68,3.65,3.41,7.11,7.43,10.66,11.08,2.2,2.26,9.87,11.68,8,7.85"/></g><path class="cls-13" d="M569.17,405.08c-29.14-5.31-35,29.21-39.94,47.75-7.61,28.62,16.4,34.72,38.58,42.6,14.16,5,20.18,2.28,34.11-4.09,9.32-4.26,23.31-5.08,30.32-12.21,11.69-11.89,6.65-55.54-5.46-64.9-7.53-5.84-21.36-7-30.31-10.15-14-4.91-16.83-1.73-29.12.08"/><path class="cls-14" d="M558.26,419.18c-4.57,1.88,2,9.57,4.89,4.07,2.14-4.09-5.55-7.35-6.25-2.25"/><path class="cls-14" d="M573.73,411c-4.58,1.89,2,9.58,4.88,4.09,2.14-4.1-5.54-7.35-6.26-2.26"/><path class="cls-14" d="M589.76,409.64c-4.58,1.88,2,9.57,4.88,4.08,2.14-4.09-5.54-7.35-6.26-2.27"/><path class="cls-14" d="M604.76,420.09c-4.56,1.89,2,9.58,4.89,4.08,2.14-4.09-5.54-7.34-6.25-2.26"/><path class="cls-14" d="M620.68,423.74c-4.56,1.88,2,9.57,4.89,4.08,2.14-4.1-5.55-7.35-6.25-2.26"/><path class="cls-14" d="M624.32,436.93c-4.56,1.89,2,9.56,4.89,4.08,2.13-4.09-5.55-7.34-6.27-2.27"/><path class="cls-14" d="M624.77,450.11c-4.56,1.88,2,9.57,4.89,4.08,2.14-4.09-5.54-7.34-6.24-2.26"/><path class="cls-14" d="M622.5,463.76c-4.57,1.88,2,9.57,4.89,4.08,2.15-4.09-5.54-7.34-6.25-2.26"/><path class="cls-14" d="M604.76,476c-4.56,1.89,2,9.57,4.89,4.08,2.14-4.1-5.54-7.35-6.25-2.26"/><path class="cls-14" d="M604.76,456.49c-4.56,1.87,2,9.57,4.89,4.07,2.14-4.09-5.54-7.34-6.25-2.26"/><path class="cls-14" d="M588.38,456.49c-4.56,1.87,2,9.57,4.9,4.07,2.14-4.09-5.55-7.34-6.25-2.26"/><path class="cls-14" d="M585.66,477.41c-4.57,1.87,2,9.56,4.89,4.07,2.14-4.09-5.54-7.34-6.25-2.26"/><path class="cls-14" d="M571.11,483.33c-4.57,1.87,2,9.56,4.89,4.07,2.13-4.1-5.56-7.35-6.26-2.26"/><path class="cls-14" d="M560.65,465.58c-4.57,1.88,2,9.57,4.88,4.08,2.14-4.09-5.54-7.35-6.25-2.26"/><path class="cls-14" d="M542.45,464.22c-4.56,1.88,2,9.56,4.89,4.07,2.14-4.09-5.55-7.34-6.25-2.26"/><path class="cls-14" d="M552.45,476.5c-4.55,1.88,2,9.57,4.9,4.07,2.14-4.08-5.55-7.34-6.25-2.25"/><path class="cls-14" d="M539.73,446c-4.57,1.88,2,9.56,4.89,4.07,2.13-4.09-5.56-7.35-6.27-2.26"/><path class="cls-14" d="M543.82,424.65c-4.57,1.88,2,9.57,4.89,4.08,2.13-4.1-5.55-7.35-6.26-2.26"/><path class="cls-14" d="M552,436c-4.56,1.88,2,9.56,4.9,4.07,2.14-4.09-5.55-7.34-6.26-2.25"/><path class="cls-14" d="M570.19,436c-4.56,1.88,2,9.56,4.9,4.07,2.13-4.09-5.56-7.34-6.26-2.25"/><path class="cls-14" d="M566.56,446.93c-4.56,1.89,2,9.57,4.88,4.08,2.14-4.09-5.54-7.35-6.25-2.26"/><path class="cls-14" d="M554.27,446.93c-4.56,1.89,2,9.57,4.9,4.08,2.14-4.09-5.55-7.35-6.25-2.26"/><path class="cls-14" d="M575.66,463.3c-4.57,1.89,2,9.57,4.89,4.08,2.13-4.09-5.55-7.34-6.26-2.25"/><path class="cls-14" d="M588.84,441c-4.57,1.88,2,9.57,4.89,4.08,2.14-4.09-5.54-7.34-6.25-2.26"/><path class="cls-14" d="M584.75,425.56c-4.57,1.88,2,9.57,4.89,4.08,2.14-4.09-5.55-7.35-6.26-2.26"/><path class="cls-14" d="M605.21,437.38c-4.56,1.89,2,9.57,4.9,4.08,2.14-4.09-5.55-7.34-6.26-2.26"/><path class="cls-14" d="M613,448.75c-4.56,1.89,2,9.57,4.89,4.08,2.14-4.08-5.54-7.34-6.25-2.26"/></g></svg>