<svg xmlns="http://www.w3.org/2000/svg" viewBox="0 0 1170 1016"><defs><style>.cls-1{fill:#2e3191;}.cls-2{fill:#416c53;}.cls-3{fill:#d3d3d3;}</style></defs><title>consortium_hives</title><g id="Layer_2" data-name="Layer 2"><path class="cls-1" d="M424.33,372.18S648.6,216.1,682.24,260.5s-31,142.63-47.1,154.74c0,0,58.09-98.9,35.89-137.92S459.77,354,424.33,372.18Z"/><path class="cls-2" d="M529.29,398.8S695,281.85,719,313.59s-38.27,93-49.81,101.65c0,0,52.29-56.35,36.41-84.25S554.62,385.82,529.29,398.8Z"/><path class="cls-3" d="M639.62,415.3s98-69.16,112.2-50.39-11.86,38.85-18.69,44c0,0,17.28-20.38,10.77-33.67C735.55,358.16,654.6,407.62,639.62,415.3Z"/><path class="cls-1" d="M877.67,490V449.78H821.55v.08H794.71A43.93,43.93,0,0,0,751,489.61l0,.05v58.6l43.74,0h39a43.94,43.94,0,0,0,43.72-39.82h0v-.29c.11-1.26.19-2.53.19-3.82v-10.5C877.67,492.49,877.72,491.47,877.67,490Zm-24.49,5.85v6.44c0,.79,0,1.57-.12,2.34v.17h0a26.93,26.93,0,0,1-26.81,24.42H802.3l-26.82,0v-36a26.93,26.93,0,0,1,26.81-24.38h16.46v-.05h34.42v24.64C853.21,494.39,853.18,495,853.18,495.81Z"/><path class="cls-1" d="M538.08,530.1H487.32a26.93,26.93,0,0,1-26.11-20.4H539.7V489.57H460.37V469.74h92.45v-19H435.88v40.18c0,1.51,0,2.53,0,3.82v10.5c0,1.29.09,2.56.2,3.82v.28h0a43.92,43.92,0,0,0,43.72,39.83h39l34.27,0V530.1Z"/><polygon class="cls-1" points="994.09 450.74 953.11 515.9 912.14 450.74 886.62 450.67 953.11 552.5 1019.61 450.67 994.09 450.74"/><polygon class="cls-1" points="286.24 450.7 180.09 450.7 180.09 471.57 222.73 471.57 222.73 547.89 243.6 547.89 243.6 471.57 286.24 471.57 286.24 450.7"/><polygon class="cls-1" points="396.9 450.7 396.9 489.5 320.16 489.5 320.16 450.7 299.29 450.7 299.29 549.16 320.16 549.16 320.16 510.37 396.9 510.37 396.9 549.16 417.77 549.16 417.77 450.7 396.9 450.7"/><rect class="cls-1" x="631.56" y="485.2" width="20.87" height="63.97"/><path class="cls-1" d="M693.93,462.22a8.51,8.51,0,0,0-1.61-3.15c-5.38-7.43-14.84-8.37-14.84-8.37H571.33v98.46H592.2V471.57h73.33c5.67,0,8.9,4.85,10,6.89l35.39,70.7,26.84-.9Z"/></g></svg>