<svg xmlns="http://www.w3.org/2000/svg" viewBox="0 0 1170 1016"><defs><style>.cls-1{fill:#2e3191;}.cls-2{fill:#416c53;}.cls-3{fill:#d3d3d3;}</style></defs><title>consortium_hives</title><g id="Layer_2" data-name="Layer 2"><path class="cls-1" d="M84.33,524.75S186,454,201.26,474.12s-14,64.66-21.35,70.15c0,0,26.33-44.84,16.27-62.53S100.4,516.52,84.33,524.75Z"/><path class="cls-2" d="M131.91,536.82s75.13-53,86-38.64-17.35,42.17-22.58,46.09c0,0,23.7-25.55,16.51-38.19S143.4,530.93,131.91,536.82Z"/><path class="cls-3" d="M181.94,544.3s44.42-31.36,50.86-22.85-5.37,17.61-8.47,19.93c0,0,7.84-9.23,4.88-15.26C225.43,518.39,188.73,540.82,181.94,544.3Z"/><path class="cls-1" d="M943.67,496V455.78H887.55v.08H860.71A43.93,43.93,0,0,0,817,495.61l0,.05v58.6l43.74,0h39a43.94,43.94,0,0,0,43.72-39.82h0v-.29c.11-1.26.19-2.53.19-3.82v-10.5C943.67,498.49,943.72,497.47,943.67,496Zm-24.49,5.85v6.44c0,.79,0,1.57-.12,2.34v.17h0a26.93,26.93,0,0,1-26.81,24.42H868.3l-26.82,0v-36a26.93,26.93,0,0,1,26.81-24.38h16.46v-.05h34.42v24.64C919.21,500.39,919.18,501,919.18,501.81Z"/><path class="cls-1" d="M604.08,536.1H553.32a26.93,26.93,0,0,1-26.11-20.4H605.7V495.57H526.37V475.74h92.45v-19H501.88v40.18c0,1.51,0,2.53,0,3.82v10.5c0,1.29.09,2.56.2,3.82v.28h0a43.92,43.92,0,0,0,43.72,39.83h39l34.27,0V536.1Z"/><polygon class="cls-1" points="1060.09 456.74 1019.11 521.9 978.14 456.74 952.62 456.67 1019.11 558.5 1085.61 456.67 1060.09 456.74"/><polygon class="cls-1" points="352.24 456.7 246.09 456.7 246.09 477.57 288.73 477.57 288.73 553.89 309.6 553.89 309.6 477.57 352.24 477.57 352.24 456.7"/><polygon class="cls-1" points="462.9 456.7 462.9 495.5 386.16 495.5 386.16 456.7 365.29 456.7 365.29 555.16 386.16 555.16 386.16 516.37 462.9 516.37 462.9 555.16 483.77 555.16 483.77 456.7 462.9 456.7"/><rect class="cls-1" x="697.56" y="491.2" width="20.87" height="63.97"/><path class="cls-1" d="M759.93,468.22a8.51,8.51,0,0,0-1.61-3.15c-5.38-7.43-14.84-8.37-14.84-8.37H637.33v98.46H658.2V477.57h73.33c5.67,0,8.9,4.85,10,6.89l35.39,70.7,26.84-.9Z"/></g></svg>