<svg xmlns="http://www.w3.org/2000/svg" viewBox="0 0 1170 1016"><defs><style>.cls-1{fill:#0aabc5;}.cls-2{fill:#66c6eb;}.cls-3{fill:#00a5b6;}.cls-4{fill:#9cd6ef;}</style></defs><title>consortium_hives</title><g id="Layer_2" data-name="Layer 2"><path class="cls-1" d="M331.26,772.69a20.48,20.48,0,0,0,5-.51,9,9,0,0,0,3.18-1.38,4.61,4.61,0,0,0,1.66-2.07,7.47,7.47,0,0,0,.46-2.67,6.17,6.17,0,0,0-2.95-5.19c-2-1.39-5.34-2.87-10.12-4.47-2.09-.73-4.17-1.58-6.26-2.53a22.87,22.87,0,0,1-5.61-3.59,17.09,17.09,0,0,1-4.05-5.24,16.36,16.36,0,0,1-1.57-7.5,18.47,18.47,0,0,1,1.66-8,16.87,16.87,0,0,1,4.69-6,21.5,21.5,0,0,1,7.36-3.82,33.09,33.09,0,0,1,9.76-1.34,38.95,38.95,0,0,1,18.87,4.42l-4.14,11.32a40.16,40.16,0,0,0-5.94-2.44,25.88,25.88,0,0,0-7.87-1.06c-3.44,0-5.9.48-7.41,1.43a4.82,4.82,0,0,0-2.25,4.37,5,5,0,0,0,.83,3,8.2,8.2,0,0,0,2.34,2.16,20.76,20.76,0,0,0,3.5,1.75c1.32.52,2.77,1.06,4.37,1.61q5,1.85,8.65,3.63a23.29,23.29,0,0,1,6.12,4.19,15.24,15.24,0,0,1,3.64,5.61,22.79,22.79,0,0,1,1.19,7.83q0,8.93-6.25,13.85t-18.87,4.92a51.93,51.93,0,0,1-7.64-.51,48.2,48.2,0,0,1-6-1.24,32.78,32.78,0,0,1-7.68-3.13l4-11.41a35.76,35.76,0,0,0,7,2.81A36.44,36.44,0,0,0,331.26,772.69Z"/><path class="cls-1" d="M412.89,719.87v12.24H393.66v51.53H379.3V732.11H360.06V719.87Z"/><path class="cls-1" d="M422.09,783.64V719.87h43.07v12H436.45v12.52h25.49v11.78H436.45v15.37h30.83v12Z"/><path class="cls-1" d="M520.65,783.64c-.71-2.21-1.47-4.49-2.29-6.82l-2.44-7H491q-1.2,3.49-2.42,7t-2.26,6.81H471.42q3.6-10.3,6.83-19t6.32-16.47q3.09-7.74,6.1-14.68t6.23-13.57h13.61q3.13,6.61,6.19,13.57t6.15,14.68q3.1,7.73,6.33,16.47t6.84,19ZM503.4,734.31q-.48,1.4-1.41,3.78c-.61,1.6-1.32,3.44-2.1,5.53s-1.67,4.39-2.65,6.9-2,5.15-3,7.91h18.23c-1-2.77-1.92-5.41-2.83-7.93s-1.79-4.83-2.61-6.92-1.54-3.93-2.17-5.52S503.78,735.22,503.4,734.31Z"/><path class="cls-1" d="M561.15,719.87c1.11,2,2.38,4.52,3.83,7.5s2.95,6.19,4.52,9.66,3.12,7,4.66,10.63l4.34,10.21q2-4.79,4.33-10.21T587.49,737q2.35-5.21,4.52-9.66t3.83-7.5h13.07q.92,6.35,1.71,14.21T612,750.47q.59,8.5,1.1,17.07t.87,16.1H600q-.29-9.28-.74-20.24t-1.38-22.09l-3.69,8.56q-2,4.7-4,9.38t-3.83,9q-1.85,4.28-3.14,7.31h-10q-1.29-3-3.14-7.31t-3.83-9c-1.33-3.12-2.66-6.25-4-9.38l-3.69-8.56q-.91,11.13-1.38,22.09t-.74,20.24h-14q.38-7.54.88-16.1t1.1-17.07q.6-8.52,1.38-16.39t1.71-14.21Z"/><path class="cls-1" d="M665.23,719.87h14.36v63.77H665.23v-27H641.12v27H626.76V719.87h14.36v24.38h24.11Z"/><path class="cls-1" d="M694.31,719.87h14.36v63.77H694.31Z"/><path class="cls-1" d="M742.46,783.64q-3.81-8-7.51-16.68t-7-17.1q-3.33-8.45-6.13-16.19T717,719.87h15.83q1.8,5.53,4,11.92c1.47,4.26,3,8.5,4.47,12.73l4.36,12.15q2.08,5.82,4,10,1.8-4.2,3.93-10t4.4-12.15q2.28-6.34,4.47-12.73t4-12h15.28q-2.14,6.09-4.93,13.82t-6.1,16.18q-3.32,8.48-7,17.12t-7.48,16.65Z"/><path class="cls-1" d="M789.84,783.64V719.87h43.07v12H804.2v12.52h25.49v11.78H804.2v15.37H835v12Z"/><path class="cls-2" d="M353,831.06c-3.48,0-6.14-1-8-2.91s-2.74-4.69-2.74-8.26a12.82,12.82,0,0,1,.83-4.75,10.31,10.31,0,0,1,2.29-3.53,9.52,9.52,0,0,1,3.47-2.18,12.59,12.59,0,0,1,4.36-.74,13.54,13.54,0,0,1,2.48.2,16,16,0,0,1,1.94.46,10.9,10.9,0,0,1,1.4.54,8.64,8.64,0,0,1,.8.44l-1.39,3.9a11.84,11.84,0,0,0-2.31-.9,10.85,10.85,0,0,0-3-.37,6.53,6.53,0,0,0-2.18.37,5,5,0,0,0-1.89,1.19,5.9,5.9,0,0,0-1.32,2.12,8.87,8.87,0,0,0-.49,3.15,11.57,11.57,0,0,0,.32,2.77,5.87,5.87,0,0,0,1.06,2.22,5.22,5.22,0,0,0,1.9,1.47,6.77,6.77,0,0,0,2.85.54,11.8,11.8,0,0,0,1.88-.13,14.11,14.11,0,0,0,1.49-.29A6.89,6.89,0,0,0,358,826l.9-.4,1.33,3.87a11.39,11.39,0,0,1-2.88,1.11A16.71,16.71,0,0,1,353,831.06Z"/><path class="cls-2" d="M371.14,808.94c3.22,0,5.68.57,7.4,1.71A6,6,0,0,1,381.1,816a6,6,0,0,1-1,3.67,6.92,6.92,0,0,1-3,2.21c.43.53.89,1.15,1.36,1.84s.95,1.41,1.41,2.16.91,1.54,1.35,2.36.83,1.61,1.2,2.39H377q-.6-1.05-1.2-2.13c-.4-.72-.82-1.42-1.24-2.11s-.84-1.32-1.26-1.93a19.69,19.69,0,0,0-1.24-1.65h-2.38v7.82h-4.83V809.49a28,28,0,0,1,3.27-.43C369.25,809,370.25,808.94,371.14,808.94Zm.28,4.11c-.35,0-.67,0-.94,0l-.79.06V819h1.36a8.31,8.31,0,0,0,3.9-.68,2.46,2.46,0,0,0,1.17-2.32,2.37,2.37,0,0,0-1.19-2.25A7.39,7.39,0,0,0,371.42,813.05Z"/><path class="cls-2" d="M387,830.62V809.18h14.48v4.06h-9.65v4.2h8.57v4h-8.57v5.17h10.36v4Z"/><path class="cls-2" d="M421.72,830.62c-.24-.74-.49-1.51-.77-2.29s-.54-1.57-.82-2.35h-8.37l-.81,2.35c-.28.79-.53,1.55-.76,2.29h-5q1.21-3.47,2.3-6.4t2.13-5.54c.69-1.73,1.37-3.38,2-4.93s1.37-3.08,2.1-4.57h4.57c.71,1.49,1.4,3,2.09,4.57s1.37,3.2,2.06,4.93,1.41,3.58,2.13,5.54,1.49,4.09,2.3,6.4ZM415.92,814c-.1.31-.26.74-.47,1.27s-.44,1.16-.71,1.86-.56,1.47-.88,2.32-.66,1.73-1,2.66H419l-.95-2.67c-.31-.85-.6-1.62-.88-2.32l-.73-1.86Q416.12,814.49,415.92,814Z"/><path class="cls-2" d="M444.56,809.18v4.12h-6.47v17.32h-4.82V813.3H426.8v-4.12Z"/><path class="cls-2" d="M449.2,809.18H454v21.44H449.2Z"/><path class="cls-2" d="M466.93,830.62q-1.28-2.7-2.52-5.6T462,819.27c-.75-1.9-1.43-3.71-2.06-5.45s-1.17-3.28-1.62-4.64h5.32c.4,1.24.85,2.58,1.34,4s1,2.86,1.5,4.28,1,2.78,1.46,4.09.92,2.42,1.35,3.37q.6-1.41,1.32-3.36c.47-1.31,1-2.67,1.48-4.09s1-2.85,1.5-4.28.94-2.77,1.34-4h5.14c-.48,1.37-1,2.92-1.66,4.65s-1.31,3.54-2.05,5.44-1.53,3.82-2.35,5.76-1.67,3.8-2.51,5.59Z"/><path class="cls-2" d="M484.41,830.62V809.18h14.48v4.06h-9.66v4.2h8.57v4h-8.57v5.17H499.6v4Z"/><path class="cls-2" d="M528,826.48v4.14H513.67V809.18h4.83v17.3Z"/><path class="cls-2" d="M532.64,830.62V809.18h14.48v4.06h-9.65v4.2H546v4h-8.57v5.17h10.36v4Z"/><path class="cls-2" d="M567.32,830.62c-.24-.74-.5-1.51-.77-2.29s-.55-1.57-.82-2.35h-8.38l-.81,2.35c-.27.79-.53,1.55-.76,2.29h-5q1.22-3.47,2.29-6.4t2.13-5.54c.69-1.73,1.38-3.38,2-4.93s1.37-3.08,2.09-4.57h4.58c.7,1.49,1.4,3,2.08,4.57s1.37,3.2,2.07,4.93,1.4,3.58,2.13,5.54,1.49,4.09,2.3,6.4ZM561.52,814c-.11.31-.27.74-.47,1.27s-.45,1.16-.71,1.86-.56,1.47-.89,2.32-.66,1.73-1,2.66h6.13c-.33-.93-.64-1.82-1-2.67s-.6-1.62-.88-2.32-.52-1.33-.72-1.86S561.65,814.34,561.52,814Z"/><path class="cls-2" d="M583.07,808.94q4.83,0,7.39,1.71a6.89,6.89,0,0,1,1.53,9,6.89,6.89,0,0,1-3,2.21c.43.53.88,1.15,1.36,1.84s.94,1.41,1.41,2.16.91,1.54,1.34,2.36.84,1.61,1.21,2.39h-5.4l-1.19-2.13c-.41-.72-.82-1.42-1.24-2.11s-.85-1.32-1.26-1.93-.83-1.16-1.24-1.65h-2.39v7.82h-4.82V809.49a28.15,28.15,0,0,1,3.26-.43C581.18,809,582.18,808.94,583.07,808.94Zm.28,4.11c-.35,0-.67,0-1,0l-.79.06V819H583a8.23,8.23,0,0,0,3.89-.68,2.45,2.45,0,0,0,1.18-2.32,2.39,2.39,0,0,0-1.19-2.25A7.44,7.44,0,0,0,583.35,813.05Z"/><path class="cls-2" d="M613.36,830.62c-1.39-2.45-2.88-4.87-4.49-7.27a72.92,72.92,0,0,0-5.14-6.77v14H599V809.18h3.93c.68.68,1.43,1.52,2.26,2.51s1.66,2,2.52,3.17,1.71,2.29,2.55,3.5,1.64,2.36,2.38,3.48V809.18h4.8v21.44Z"/><path class="cls-2" d="M623.91,809.18h4.82v21.44h-4.82Z"/><path class="cls-2" d="M649.62,830.62c-1.39-2.45-2.88-4.87-4.49-7.27a72.92,72.92,0,0,0-5.14-6.77v14h-4.76V809.18h3.93c.68.68,1.43,1.52,2.26,2.51s1.66,2,2.52,3.17,1.71,2.29,2.55,3.5,1.64,2.36,2.38,3.48V809.18h4.8v21.44Z"/><path class="cls-2" d="M670.62,812.9c-2.24,0-3.87.62-4.87,1.87a8,8,0,0,0-1.5,5.12,10.21,10.21,0,0,0,.37,2.86,6.23,6.23,0,0,0,1.12,2.21,5,5,0,0,0,1.85,1.44,6.19,6.19,0,0,0,2.6.51q.81,0,1.38,0a6.69,6.69,0,0,0,1-.12V819.3h4.83v10.61a18.28,18.28,0,0,1-2.78.73,24.31,24.31,0,0,1-4.74.39,12.2,12.2,0,0,1-4.38-.75,9,9,0,0,1-3.35-2.16,9.61,9.61,0,0,1-2.15-3.5,13.61,13.61,0,0,1-.76-4.73,12.81,12.81,0,0,1,.83-4.77,10.32,10.32,0,0,1,2.29-3.51,9.58,9.58,0,0,1,3.42-2.18,11.88,11.88,0,0,1,4.19-.74,16.3,16.3,0,0,1,2.74.2,17.57,17.57,0,0,1,2.11.46,11.35,11.35,0,0,1,1.45.54c.38.19.65.33.82.44l-1.39,3.86a12.74,12.74,0,0,0-2.28-.91A9.58,9.58,0,0,0,670.62,812.9Z"/><path class="cls-2" d="M702.18,831.06c-3.49,0-6.14-1-8-2.91s-2.73-4.69-2.73-8.26a12.62,12.62,0,0,1,.83-4.75,10.31,10.31,0,0,1,2.29-3.53,9.44,9.44,0,0,1,3.47-2.18,12.59,12.59,0,0,1,4.36-.74,13.43,13.43,0,0,1,2.47.2,16.15,16.15,0,0,1,2,.46,10.7,10.7,0,0,1,1.39.54,9.15,9.15,0,0,1,.81.44l-1.39,3.9a11.84,11.84,0,0,0-2.31-.9,10.9,10.9,0,0,0-3-.37,6.59,6.59,0,0,0-2.19.37,4.86,4.86,0,0,0-1.88,1.19,5.9,5.9,0,0,0-1.32,2.12,8.87,8.87,0,0,0-.49,3.15,11.57,11.57,0,0,0,.32,2.77,6,6,0,0,0,1.05,2.22,5.25,5.25,0,0,0,1.91,1.47,6.76,6.76,0,0,0,2.84.54,12,12,0,0,0,1.89-.13,14.63,14.63,0,0,0,1.49-.29,6.89,6.89,0,0,0,1.14-.39l.9-.4,1.33,3.87a11.39,11.39,0,0,1-2.88,1.11A16.76,16.76,0,0,1,702.18,831.06Z"/><path class="cls-2" d="M714,830.62V809.18h14.48v4.06h-9.65v4.2h8.56v4h-8.56v5.17h10.36v4Z"/><path class="cls-2" d="M748.68,830.62q-2.07-3.68-4.49-7.27a72.84,72.84,0,0,0-5.13-6.77v14h-4.77V809.18h3.93c.68.68,1.44,1.52,2.26,2.51s1.67,2,2.52,3.17,1.71,2.29,2.56,3.5,1.64,2.36,2.38,3.48V809.18h4.79v21.44Z"/><path class="cls-2" d="M775.13,809.18v4.12h-6.46v17.32h-4.83V813.3h-6.47v-4.12Z"/><path class="cls-2" d="M779.77,830.62V809.18h14.48v4.06H784.6v4.2h8.57v4H784.6v5.17H795v4Z"/><path class="cls-2" d="M806.35,808.94q4.83,0,7.39,1.71a6,6,0,0,1,2.57,5.34,6,6,0,0,1-1,3.67,7,7,0,0,1-3,2.21c.43.53.89,1.15,1.36,1.84s.94,1.41,1.41,2.16.91,1.54,1.34,2.36.84,1.61,1.21,2.39h-5.39q-.6-1.05-1.2-2.13c-.4-.72-.82-1.42-1.24-2.11s-.85-1.32-1.26-1.93a19.69,19.69,0,0,0-1.24-1.65H804.9v7.82h-4.83V809.49a28.15,28.15,0,0,1,3.26-.43C804.46,809,805.46,808.94,806.35,808.94Zm.28,4.11c-.35,0-.67,0-1,0l-.78.06V819h1.36a8.31,8.31,0,0,0,3.9-.68,2.46,2.46,0,0,0,1.17-2.32,2.39,2.39,0,0,0-1.19-2.25A7.44,7.44,0,0,0,806.63,813.05Z"/><path class="cls-3" d="M394.08,328a64.28,64.28,0,0,1,3.62-7.33c3.65-6.32,10.06-15,19.93-20.74l126.81-73.22c15.93-9.19,39.94-9.19,55.86,0l54.46,31.44,46.89-12.56L617.46,197c-26.55-15.33-63.63-15.33-90.18,0L400.47,270.21c-16.45,9.51-26.75,23.36-32.5,33.3a94,94,0,0,0-12,34.7Z"/><path class="cls-2" d="M407.1,534.79a63,63,0,0,1-16.47-31.08L755,406.07v35.49l34.33-9.2V362.77l-434,116.28v15.69c0,17.19,5.83,34.83,15.63,49.72Z"/><path class="cls-1" d="M355.38,373.92v69.6l34.33-9.2v-35.5l345.81-92.65a63.11,63.11,0,0,1,18.07,30.64l33.12-8.87c-6-23.68-21.76-45.8-42.44-57.73l-.58-.34Z"/><path class="cls-4" d="M399.66,572.32c.27.17.53.36.81.52l126.81,73.21c26.55,15.33,63.63,15.33,90.18,0l126.81-73.22c16.46-9.5,26.76-23.36,32.5-33.31s12.59-25.79,12.59-44.79V467.91Zm347.39-50c-3.65,6.32-10.07,15-19.95,20.74L600.3,616.32c-15.93,9.2-39.93,9.2-55.86,0l-57.6-33.25,265-71A65.1,65.1,0,0,1,747.05,522.37Z"/></g></svg>