<svg xmlns="http://www.w3.org/2000/svg" viewBox="0 0 1170 1016"><defs><style>.cls-1{fill:#00a0df;}</style></defs><title>consortium_hives</title><g id="Layer_2" data-name="Layer 2"><path class="cls-1" d="M468.69,413.7h35.64v45a97,97,0,0,1-38.91,8.51q-26.37,0-42.13-15.39t-15.77-37.95q0-23.79,16.34-39.59t40.95-15.81a72.72,72.72,0,0,1,17,1.94,138.82,138.82,0,0,1,20.36,7.11V383q-19-11-37.69-11-17.4,0-29.33,11.85a39.48,39.48,0,0,0-11.93,29.11q0,18.07,11.93,29.56T465.88,454q9.12,0,21.81-4.18l1.44-.46V427.22H468.69Z"/><path class="cls-1" d="M610.86,359.82H625.3V466H612.23l-71-81.76V466H527V359.82h12.31l71.58,82.45Z"/><path class="cls-1" d="M648.17,359.82h15.2V466h-15.2Z"/><path class="cls-1" d="M677.88,359.67h88.68V373.2h-37V466H714.28V373.2h-36.4Z"/><path class="cls-1" d="M780.92,359.82H841.1v13.53h-45v32.37h43.46v13.6H796.12v33h46.43v13.52H780.92Z"/><path class="cls-1" d="M323.16,631.63v23.88q-23.88,13-55.15,13-25.39,0-43.09-10.2a75.15,75.15,0,0,1-28-28.12,76.4,76.4,0,0,1-10.31-38.75q0-33.11,23.61-55.69t58.24-22.58q23.88,0,53.08,12.48V549q-26.59-15.19-52-15.19-26,0-43.25,16.44t-17.21,41.2q0,25,16.93,41t43.32,16.07Q296.89,648.57,323.16,631.63Z"/><path class="cls-1" d="M418.71,560.65H434v60.26q0,12.23-1.78,18.46a40.5,40.5,0,0,1-4.41,10.37,33,33,0,0,1-6.42,7.41Q408.76,668,388.39,668q-20.75,0-33.28-10.79a34.33,34.33,0,0,1-6.43-7.49,38.72,38.72,0,0,1-4.32-10.14q-1.73-6-1.72-18.84V560.65h15.28v60.26q0,15,3.42,20.82a24.33,24.33,0,0,0,10.41,9.38,36.05,36.05,0,0,0,16.49,3.54q13.51,0,22-7.07a21.87,21.87,0,0,0,6.46-9q2-5.16,2-17.7Z"/><path class="cls-1" d="M455.49,666.8V560.65h26.59q16.11,0,25.57,8t9.46,21.58a26.55,26.55,0,0,1-17.93,26.14,47,47,0,0,1,9.95,9.12q4.86,5.78,13.68,20.13,5.55,9,8.89,13.6l5.62,7.6H519.24l-4.63-7c-.15-.25-.46-.68-.91-1.29l-3-4.19L506,646.58,501,638.29a82.06,82.06,0,0,0-8.63-10.4,32.49,32.49,0,0,0-7.07-5.58q-3.17-1.71-10.61-1.71h-4v46.2Zm19.75-93.23h-4.56v33.51h5.78q11.55,0,15.84-2a14.9,14.9,0,0,0,6.69-6,17.27,17.27,0,0,0,2.39-9.08,16.24,16.24,0,0,0-2.66-9.08,14.21,14.21,0,0,0-7.48-5.74Q486.41,573.56,475.24,573.57Z"/><path class="cls-1" d="M549.18,560.65h15.19V666.8H549.18Z"/><path class="cls-1" d="M640,559.13q24.6,0,41,15.58t16.36,39q0,23.49-16.52,38.87T639.19,668q-24,0-40-15.39t-16-38.56q0-23.79,16.1-39.36T640,559.13Zm.61,14.44q-18.23,0-30,11.4T599,614.07q0,17.17,11.77,28.57T640.17,654q17.76,0,29.65-11.63t11.88-28.95a37.94,37.94,0,0,0-11.88-28.38Q657.94,573.56,640.63,573.57Z"/><path class="cls-1" d="M742.34,622.33l-11.55-7q-10.87-6.63-15.47-13.06a24.75,24.75,0,0,1-4.59-14.78q0-12.54,8.69-20.36T742,559.28a42.72,42.72,0,0,1,24.39,7.47V584q-11.48-11-24.69-11c-5,0-9,1.15-12.24,3.44a10.46,10.46,0,0,0-4.78,8.82,13.53,13.53,0,0,0,3.53,8.93q3.51,4.17,11.34,8.74l11.6,6.87q19.43,11.61,19.42,29.54,0,12.76-8.54,20.74t-22.23,8a46.66,46.66,0,0,1-28.65-9.67v-19.3q12.32,15.6,28.5,15.6a17.91,17.91,0,0,0,11.89-4,12.48,12.48,0,0,0,4.75-10Q756.32,631,742.34,622.33Z"/><path class="cls-1" d="M787.47,560.65h15.2V666.8h-15.2Z"/><path class="cls-1" d="M817.18,560.5h88.68V574h-37V666.8H853.58V574h-36.4Z"/><path class="cls-1" d="M984.07,560.65h18.45l-39.21,50V666.8H947.73V610.65l-39.21-50h18.35l28.4,36.6Z"/><path class="cls-1" d="M370,405.83c-.53,5.17-1,10.11-1.55,15.06s-1,10-1.55,14.93-1,9.91-1.54,14.85c-.58,5.3-1.49,14.44-1.43,14.93L392,386.54c-2.83.94-5.54,1.93-8.37,2.83.61-2.13,1.16-4.09,1.71-6.05s1.11-3.92,1.67-5.88,1.11-3.92,1.67-5.88l1.65-5.82q.83-2.94,1.67-5.88c.55-2,1.11-3.92,1.66-5.88s1.13-3.87,1.67-6l-2.4.68c-.79.23-1.57.49-2.36.69a15.37,15.37,0,0,1-2.36.61c.67-2.26,1.29-4.38,1.92-6.5s1.26-4.25,1.88-6.38l1.89-6.37,1.91-6.44c.62-2.13,1.26-4.25,1.88-6.37s1.27-4.19,1.87-6.42l-.3.06-4.39.95-5.77,1.24L383.37,315l-6.45,1.39c-2.15.46-4.29.95-6.44,1.41s-4.27.92-6.4,1.38c-.39.08-.39.1-.45.79l-.42,4.8q-.34,4-.68,8l-.69,8.06q-.4,4.57-.79,9.16c-.27,3.05-.52,6.11-.78,9.16s-.53,6.11-.8,9.16c-.05.66-.1,1.32-.15,2.07,1.3-.52,2.53-1,3.77-1.51s2.46-1,3.77-1.44c-1.6,14-3.19,27.91-4.8,41.9Z"/></g></svg>