<svg xmlns="http://www.w3.org/2000/svg" viewBox="0 0 1170 1016"><defs><style>.cls-1{fill:#45387f;}.cls-2{fill:#7d6aac;}.cls-3{fill:#5f4d99;}.cls-4{fill:#6d378b;}.cls-5{fill:#804c98;}.cls-6{fill:#9164a6;}.cls-7{fill:#c583b7;}.cls-8{fill:#a379b3;}.cls-9{fill:#58267d;}.cls-10{fill:#872b77;}.cls-11{fill:#ad4c96;}</style></defs><title>consortium_hives</title><g id="Layer_2" data-name="Layer 2"><path class="cls-1" d="M226.51,685.46V595.83h60v16.94H246.69v18.76h35.44v16.94H246.69v37Z"/><path class="cls-1" d="M385.09,640.58a55.06,55.06,0,0,1-3.43,20.24,41.59,41.59,0,0,1-9.38,14.62,38.4,38.4,0,0,1-14.16,8.86,51.55,51.55,0,0,1-17.66,3,50.25,50.25,0,0,1-17.33-3,39.82,39.82,0,0,1-14.22-8.86,41.45,41.45,0,0,1-9.58-14.62,54.21,54.21,0,0,1-3.49-20.24,52.6,52.6,0,0,1,3.62-20.24,43.1,43.1,0,0,1,9.77-14.68,40.17,40.17,0,0,1,14.23-8.93,48.88,48.88,0,0,1,17-3,50.22,50.22,0,0,1,17.34,3A39.56,39.56,0,0,1,372,605.66a42.1,42.1,0,0,1,9.57,14.68A54.41,54.41,0,0,1,385.09,640.58Zm-68.42,0a40.69,40.69,0,0,0,1.61,11.9,27.09,27.09,0,0,0,4.66,9.12,20.52,20.52,0,0,0,7.44,5.88,25.46,25.46,0,0,0,20.11,0,20.56,20.56,0,0,0,7.5-5.88,27.09,27.09,0,0,0,4.66-9.12,41,41,0,0,0,1.61-11.9,41.6,41.6,0,0,0-1.61-12,27.16,27.16,0,0,0-4.66-9.19,20.56,20.56,0,0,0-7.5-5.88,23.58,23.58,0,0,0-10-2.07,22.84,22.84,0,0,0-10.08,2.13,21.15,21.15,0,0,0-7.44,5.95,27.21,27.21,0,0,0-4.66,9.18A40.9,40.9,0,0,0,316.67,640.58Z"/><path class="cls-1" d="M442.78,687.27q-21.87,0-33.31-12.16T398,640.58a53.12,53.12,0,0,1,3.5-19.86A42.54,42.54,0,0,1,411.09,606a40,40,0,0,1,14.48-9.12,52.29,52.29,0,0,1,18.24-3.1,58.61,58.61,0,0,1,10.35.84,67.86,67.86,0,0,1,8.15,1.94,40.41,40.41,0,0,1,5.82,2.26c1.55.78,2.67,1.38,3.36,1.81l-5.82,16.3a48.22,48.22,0,0,0-9.64-3.75,45.73,45.73,0,0,0-12.48-1.55,27.48,27.48,0,0,0-9.12,1.55,20.58,20.58,0,0,0-7.89,5,24.7,24.7,0,0,0-5.49,8.86A37.15,37.15,0,0,0,419,640.19a47.39,47.39,0,0,0,1.35,11.58,24.74,24.74,0,0,0,4.4,9.25,21.2,21.2,0,0,0,8,6.14,28.26,28.26,0,0,0,11.9,2.26,55,55,0,0,0,7.89-.51,61.46,61.46,0,0,0,6.21-1.23,33.68,33.68,0,0,0,4.78-1.62q2.07-.9,3.75-1.68l5.56,16.17a46.93,46.93,0,0,1-12,4.65A70,70,0,0,1,442.78,687.27Z"/><path class="cls-1" d="M520.77,687.27a45.09,45.09,0,0,1-16.3-2.65,30.28,30.28,0,0,1-11.31-7.37,29.4,29.4,0,0,1-6.6-11.25,46.39,46.39,0,0,1-2.14-14.43V595.83H504.6v54.06a30.39,30.39,0,0,0,1.23,9.25,17.17,17.17,0,0,0,3.36,6.21,12,12,0,0,0,5.18,3.43,20.49,20.49,0,0,0,6.66,1,16.3,16.3,0,0,0,12-4.53q4.59-4.51,4.59-15.39V595.83h20.18v55.74a45.5,45.5,0,0,1-2.2,14.49,29.55,29.55,0,0,1-6.72,11.32,30.26,30.26,0,0,1-11.51,7.31A47.84,47.84,0,0,1,520.77,687.27Z"/><path class="cls-1" d="M601.61,670.07a29.4,29.4,0,0,0,7-.71,12.91,12.91,0,0,0,4.46-1.94,6.51,6.51,0,0,0,2.33-2.91,10.39,10.39,0,0,0,.64-3.75q0-4.39-4.13-7.31t-14.23-6.27q-4.41-1.56-8.8-3.56a32.5,32.5,0,0,1-7.89-5,24.06,24.06,0,0,1-5.69-7.37,23,23,0,0,1-2.2-10.54,26.14,26.14,0,0,1,2.33-11.19,23.83,23.83,0,0,1,6.6-8.47,30.09,30.09,0,0,1,10.34-5.37,46.53,46.53,0,0,1,13.71-1.87,54.92,54.92,0,0,1,26.52,6.2l-5.82,15.92a54.28,54.28,0,0,0-8.34-3.43A36.18,36.18,0,0,0,607.43,611q-7.24,0-10.41,2a6.76,6.76,0,0,0-3.17,6.15,7.14,7.14,0,0,0,1.16,4.14,11.49,11.49,0,0,0,3.3,3,29.18,29.18,0,0,0,4.91,2.45c1.86.74,3.91,1.49,6.15,2.27q7,2.58,12.16,5.11a32.69,32.69,0,0,1,8.6,5.88,21.5,21.5,0,0,1,5.11,7.89,31.77,31.77,0,0,1,1.68,11q0,12.54-8.8,19.46t-26.51,6.92a74.1,74.1,0,0,1-10.74-.71,70.51,70.51,0,0,1-8.47-1.74,49.56,49.56,0,0,1-6.34-2.2,49.06,49.06,0,0,1-4.46-2.2l5.69-16a50.06,50.06,0,0,0,9.9,3.94A51.07,51.07,0,0,0,601.61,670.07Z"/><path class="cls-1" d="M706.5,595.83h20.18v89.63H706.5v-38H672.62v38H652.44V595.83h20.18V630.1H706.5Z"/><path class="cls-1" d="M747.38,595.83h20.17v89.63H747.38Z"/><path class="cls-1" d="M815,685.46q-5.35-11.3-10.55-23.44t-9.9-24q-4.68-11.9-8.61-22.76t-6.79-19.4h22.25q2.52,7.78,5.6,16.76t6.28,17.89l6.12,17.08q2.92,8.16,5.61,14.1,2.52-5.89,5.52-14.06t6.19-17.08q3.19-8.91,6.27-17.89t5.61-16.8h21.48q-3,8.56-6.93,19.42T854.62,638q-4.67,11.89-9.83,24.06t-10.5,23.4Z"/><path class="cls-1" d="M881.63,685.46V595.83h60.54v16.94H901.81v17.59h35.83v16.56H901.81v21.6h43.33v16.94Z"/><path class="cls-2" d="M235.53,743v4.54h-15.7V724h5.29v19Z"/><path class="cls-2" d="M249.09,724h5.29v23.49h-5.29Z"/><path class="cls-2" d="M270,747.53V724h15.73v4.44H275.27v4.91h9.29v4.44h-9.29v9.7Z"/><path class="cls-2" d="M299.61,747.53V724h15.87v4.44H304.9v4.61h9.4v4.34h-9.4v5.66h11.36v4.44Z"/><path class="cls-2" d="M347.12,741.3a7.12,7.12,0,0,1,.37-2.36,7.51,7.51,0,0,1,1-1.93,7.74,7.74,0,0,1,1.45-1.52,12.61,12.61,0,0,1,1.74-1.17,15.89,15.89,0,0,1-1.44-2.13,5,5,0,0,1-.65-2.49,5.86,5.86,0,0,1,1.8-4.6,7.18,7.18,0,0,1,4.95-1.61,8.08,8.08,0,0,1,2.78.43,5.65,5.65,0,0,1,2,1.15,4.82,4.82,0,0,1,1.21,1.7,5.28,5.28,0,0,1,.4,2.08,6.09,6.09,0,0,1-1.17,3.68,10,10,0,0,1-3,2.7l3.82,3.78a11.24,11.24,0,0,0,.58-1.71,9.72,9.72,0,0,0,.35-1.8l4.21.54q-.07.65-.24,1.41a15.38,15.38,0,0,1-.42,1.54c-.17.52-.37,1-.58,1.56a12.7,12.7,0,0,1-.7,1.43,30.92,30.92,0,0,1,2.12,2.66,23.12,23.12,0,0,1,1.79,2.89h-5.17c-.19-.3-.45-.67-.76-1.11a8.68,8.68,0,0,0-.95-1.13,12.94,12.94,0,0,1-3.16,1.82,10.72,10.72,0,0,1-4,.73,11.33,11.33,0,0,1-4-.6,7.22,7.22,0,0,1-2.56-1.52,5.26,5.26,0,0,1-1.38-2.1A7,7,0,0,1,347.12,741.3Zm4.71-.51a3.09,3.09,0,0,0,.2,1.05,2.89,2.89,0,0,0,.67,1,3.4,3.4,0,0,0,1.17.74,4.63,4.63,0,0,0,1.73.29,7.55,7.55,0,0,0,2.5-.38,5.59,5.59,0,0,0,1.79-1l-5.47-5.43a6.12,6.12,0,0,0-.92.58,4.43,4.43,0,0,0-.83.79,3.92,3.92,0,0,0-.6,1A3.45,3.45,0,0,0,351.83,740.79Zm6.58-11.7a2.29,2.29,0,0,0-3.88-1.34,2.44,2.44,0,0,0-.6,1.71,3.21,3.21,0,0,0,.51,1.71,8,8,0,0,0,1.31,1.59,7.39,7.39,0,0,0,1.87-1.46A3.1,3.1,0,0,0,358.41,729.09Z"/><path class="cls-2" d="M411.74,748c-3.82,0-6.73-1.07-8.73-3.19s-3-5.14-3-9.05a14.15,14.15,0,0,1,.91-5.21,11.42,11.42,0,0,1,2.51-3.86,10.54,10.54,0,0,1,3.8-2.39,13.52,13.52,0,0,1,4.78-.82,16.11,16.11,0,0,1,2.72.22,18.65,18.65,0,0,1,2.13.51,11,11,0,0,1,1.53.59c.4.21.7.37.88.48l-1.53,4.27a12.86,12.86,0,0,0-2.52-1,12.08,12.08,0,0,0-3.27-.41,7.29,7.29,0,0,0-2.4.41,5.39,5.39,0,0,0-2.06,1.3,6.66,6.66,0,0,0-1.45,2.33,9.78,9.78,0,0,0-.54,3.46,12.22,12.22,0,0,0,.36,3,6.4,6.4,0,0,0,1.15,2.42,5.46,5.46,0,0,0,2.09,1.61,7.36,7.36,0,0,0,3.12.6,14.2,14.2,0,0,0,2.06-.14,16.26,16.26,0,0,0,1.63-.32,9.28,9.28,0,0,0,1.26-.42l1-.44,1.46,4.23a12.17,12.17,0,0,1-3.15,1.22A18.05,18.05,0,0,1,411.74,748Z"/><path class="cls-2" d="M449.88,747.53c-.26-.81-.54-1.65-.84-2.51l-.9-2.57H439c-.29.85-.59,1.71-.89,2.57s-.57,1.7-.83,2.51h-5.49q1.32-3.79,2.51-7c.8-2.14,1.57-4.17,2.33-6.07s1.51-3.7,2.25-5.4,1.5-3.38,2.29-5h5q1.16,2.43,2.28,5t2.27,5.4c.76,1.9,1.53,3.93,2.33,6.07s1.63,4.49,2.52,7Zm-6.35-18.17c-.12.34-.29.8-.52,1.39s-.48,1.27-.77,2-.62,1.61-1,2.54-.72,1.9-1.09,2.91h6.72c-.36-1-.71-2-1.05-2.92s-.65-1.78-1-2.55l-.8-2C443.86,730.15,443.67,729.69,443.53,729.36Z"/><path class="cls-2" d="M475.62,723.76q5.29,0,8.11,1.89a6.53,6.53,0,0,1,2.81,5.84,6.6,6.6,0,0,1-1.14,4,7.41,7.41,0,0,1-3.27,2.43c.48.58,1,1.26,1.49,2s1,1.55,1.55,2.38,1,1.68,1.47,2.57.92,1.77,1.32,2.63h-5.91l-1.31-2.34c-.44-.79-.9-1.56-1.36-2.3s-.93-1.46-1.38-2.12-.91-1.27-1.36-1.82H474v8.58h-5.29V724.37a30.93,30.93,0,0,1,3.58-.47C473.55,723.81,474.65,723.76,475.62,723.76Zm.31,4.51c-.39,0-.73,0-1,0l-.86.07v6.37h1.49a9,9,0,0,0,4.27-.75,2.68,2.68,0,0,0,1.29-2.54,2.59,2.59,0,0,0-1.3-2.46A8.17,8.17,0,0,0,475.93,728.27Z"/><path class="cls-2" d="M501.53,747.53V724H517.4v4.44H506.82v4.61h9.39v4.34h-9.39v5.66h11.35v4.44Z"/><path class="cls-2" d="M532.25,747.53V724h15.86v4.44H537.54v4.61h9.39v4.34h-9.39v5.66h11.35v4.44Z"/><path class="cls-2" d="M569.85,723.76q5.29,0,8.1,1.89a6.52,6.52,0,0,1,2.82,5.84,6.6,6.6,0,0,1-1.14,4,7.53,7.53,0,0,1-3.27,2.43c.47.58,1,1.26,1.49,2s1,1.55,1.54,2.38,1,1.68,1.48,2.57.91,1.77,1.32,2.63h-5.91L575,745.19c-.45-.79-.9-1.56-1.36-2.3s-.93-1.46-1.38-2.12-.91-1.27-1.36-1.82h-2.62v8.58H563V724.37a31,31,0,0,1,3.57-.47C567.77,723.81,568.88,723.76,569.85,723.76Zm.3,4.51c-.38,0-.73,0-1,0l-.87.07v6.37h1.5A9,9,0,0,0,574,734a2.68,2.68,0,0,0,1.29-2.54A2.6,2.6,0,0,0,574,729,8.14,8.14,0,0,0,570.15,728.27Z"/><path class="cls-2" d="M634.64,735.77a13.59,13.59,0,0,1-.95,5.32,9.85,9.85,0,0,1-2.69,3.76,11.47,11.47,0,0,1-4.26,2.24,19.6,19.6,0,0,1-5.62.75q-1.43,0-3.33-.12a27.18,27.18,0,0,1-3.73-.49V724.34a30.47,30.47,0,0,1,3.82-.46c1.32-.08,2.45-.12,3.4-.12a20.66,20.66,0,0,1,5.48.68,11.15,11.15,0,0,1,4.22,2.14,9.36,9.36,0,0,1,2.71,3.73A14,14,0,0,1,634.64,735.77Zm-15.29,7.46.87,0h1.17c2.64,0,4.6-.66,5.88-2a7.63,7.63,0,0,0,1.91-5.52,7.77,7.77,0,0,0-1.83-5.6c-1.22-1.26-3.15-1.9-5.79-1.9l-1.12,0a9.07,9.07,0,0,0-1.09.09Z"/><path class="cls-2" d="M649.22,747.53V724h15.87v4.44H654.51v4.61h9.4v4.34h-9.4v5.66h11.36v4.44Z"/><path class="cls-2" d="M687.34,747.53q-1.41-3-2.77-6.14t-2.59-6.3q-1.23-3.12-2.26-6T677.94,724h5.83c.44,1.36.93,2.82,1.47,4.39s1.09,3.13,1.65,4.69,1.09,3,1.6,4.48,1,2.66,1.47,3.69c.44-1,.93-2.26,1.45-3.68s1.06-2.92,1.62-4.48,1.11-3.12,1.65-4.69,1-3,1.47-4.4h5.63c-.53,1.49-1.13,3.19-1.82,5.09s-1.43,3.88-2.25,6-1.67,4.18-2.57,6.31-1.82,4.17-2.76,6.13Z"/><path class="cls-2" d="M715,747.53V724h15.87v4.44H720.26v4.61h9.39v4.34h-9.39v5.66h11.36v4.44Z"/><path class="cls-2" d="M761.39,743v4.54h-15.7V724H751v19Z"/><path class="cls-2" d="M796.65,735.77a14.39,14.39,0,0,1-.9,5.3,10.81,10.81,0,0,1-2.46,3.83,10.13,10.13,0,0,1-3.71,2.33A13.52,13.52,0,0,1,785,748a13.13,13.13,0,0,1-4.54-.78,10.37,10.37,0,0,1-3.73-2.33,10.77,10.77,0,0,1-2.51-3.83,14.17,14.17,0,0,1-.92-5.3,13.83,13.83,0,0,1,1-5.31,11.29,11.29,0,0,1,2.56-3.85,10.61,10.61,0,0,1,3.73-2.34,12.8,12.8,0,0,1,4.46-.78,13.09,13.09,0,0,1,4.54.78,10.26,10.26,0,0,1,3.73,2.34,10.9,10.9,0,0,1,2.51,3.85A14.23,14.23,0,0,1,796.65,735.77Zm-17.94,0a10.46,10.46,0,0,0,.43,3.12,7.19,7.19,0,0,0,1.22,2.39,5.43,5.43,0,0,0,1.95,1.54,6.13,6.13,0,0,0,2.64.54,6.21,6.21,0,0,0,2.63-.54,5.38,5.38,0,0,0,2-1.54,7.21,7.21,0,0,0,1.23-2.39,10.8,10.8,0,0,0,.42-3.12,11,11,0,0,0-.42-3.14,7.12,7.12,0,0,0-1.23-2.41,5.38,5.38,0,0,0-2-1.54,6.21,6.21,0,0,0-2.63-.54,5.86,5.86,0,0,0-2.64.56,5.48,5.48,0,0,0-1.95,1.56,7.06,7.06,0,0,0-1.22,2.4A10.53,10.53,0,0,0,778.71,735.77Z"/><path class="cls-2" d="M818.28,723.76q5.25,0,8.07,1.85t2.82,6q0,4.25-2.85,6.12t-8.14,1.89h-1.66v7.86h-5.29V724.37a30.93,30.93,0,0,1,3.66-.47C816.18,723.81,817.31,723.76,818.28,723.76Zm.34,4.51c-.38,0-.76,0-1.14,0s-.69,0-1,.07v6.78h1.66a9,9,0,0,0,4.14-.75,2.88,2.88,0,0,0,1.39-2.78,3.31,3.31,0,0,0-.36-1.63,2.72,2.72,0,0,0-1-1,4.56,4.56,0,0,0-1.61-.54A12.28,12.28,0,0,0,818.62,728.27Z"/><path class="cls-2" d="M849.47,724c.41.74.88,1.66,1.42,2.76s1.08,2.28,1.66,3.56,1.15,2.58,1.72,3.91,1.1,2.59,1.6,3.77c.5-1.18,1-2.43,1.59-3.77s1.14-2.63,1.72-3.91,1.13-2.47,1.67-3.56,1-2,1.41-2.76h4.81c.23,1.55.44,3.3.63,5.23s.36,4,.51,6,.28,4.19.41,6.29.23,4.08.32,5.93h-5.16q-.09-3.42-.27-7.46t-.51-8.13l-1.36,3.15c-.5,1.15-1,2.3-1.48,3.46s-.95,2.25-1.41,3.3-.84,1.95-1.15,2.7h-3.7c-.32-.75-.7-1.65-1.16-2.7l-1.41-3.3c-.49-1.16-1-2.31-1.48-3.46l-1.36-3.15q-.33,4.09-.51,8.13t-.27,7.46h-5.15q.13-2.78.32-5.93t.41-6.29q.21-3.13.51-6c.19-1.93.4-3.68.62-5.23Z"/><path class="cls-2" d="M883.82,747.53V724h15.87v4.44H889.11v4.61h9.39v4.34h-9.39v5.66h11.36v4.44Z"/><path class="cls-2" d="M930.31,747.53c-1.52-2.69-3.15-5.34-4.92-8a80.72,80.72,0,0,0-5.63-7.42v15.39h-5.22V724h4.31c.74.74,1.57,1.66,2.47,2.74s1.83,2.25,2.77,3.48,1.87,2.51,2.79,3.83,1.8,2.59,2.61,3.81V724h5.26v23.49Z"/><path class="cls-2" d="M967.78,724v4.5h-7.09v19H955.4v-19h-7.09V724Z"/><polygon class="cls-3" points="447.76 194.01 515.74 233.26 586.94 192.16 518.96 152.91 447.76 194.01"/><polygon class="cls-4" points="586.94 365.23 515.74 324.13 444.53 365.23 515.74 406.34 586.94 365.23"/><polygon class="cls-5" points="519.48 321.96 590.68 363.07 661.89 321.96 590.68 280.86 519.48 321.96"/><polygon class="cls-6" points="736.83 278.69 665.63 237.59 594.43 278.69 665.63 319.8 736.83 278.69"/><polygon class="cls-1" points="403.32 298.17 437.05 278.69 403.32 259.22 403.32 298.17"/><polygon class="cls-7" points="778.05 345.76 744.32 365.23 778.05 384.71 778.05 345.76"/><polygon class="cls-8" points="669.38 235.43 740.58 276.53 778.05 254.9 778.05 219.68 737.35 196.18 669.38 235.43"/><polygon class="cls-2" points="590.68 190 658.65 150.75 590.68 111.5 522.72 150.75 590.68 190"/><polygon class="cls-9" points="512 408.5 440.79 367.39 403.32 389.02 403.32 436.02 433.83 453.64 512 408.5"/><polygon class="cls-10" points="590.68 453.95 512.52 499.06 590.68 544.2 668.85 499.06 590.68 453.95"/><polygon class="cls-1" points="440.79 276.53 512 235.43 444.02 196.18 403.32 219.68 403.32 254.9 440.79 276.53"/><polygon class="cls-11" points="743.8 455.8 665.63 410.67 594.43 451.78 672.6 496.91 743.8 455.8"/><polygon class="cls-7" points="740.58 367.39 669.38 408.5 747.54 453.64 778.05 436.02 778.05 389.02 740.58 367.39"/></g></svg>