<svg xmlns="http://www.w3.org/2000/svg" xmlns:xlink="http://www.w3.org/1999/xlink" viewBox="0 0 855 374.93"><defs><style>.cls-1{fill:url(#linear-gradient);filter:url(#luminosity-invert);}.cls-2{mask:url(#mask);}.cls-3{fill:#29abe2;}.cls-4{fill:none;stroke:#29abe2;stroke-miterlimit:10;stroke-width:4px;}</style><linearGradient id="linear-gradient" x1="2" y1="126.27" x2="347.03" y2="126.27" gradientUnits="userSpaceOnUse"><stop offset="0" stop-color="#fff"/><stop offset="0" stop-color="#fefefe"/><stop offset="0.23" stop-color="#b2b2b2"/><stop offset="0.43" stop-color="#737373"/><stop offset="0.62" stop-color="#414141"/><stop offset="0.78" stop-color="#1e1e1e"/><stop offset="0.91" stop-color="#080808"/><stop offset="1"/></linearGradient><filter id="luminosity-invert" filterUnits="userSpaceOnUse" color-interpolation-filters="sRGB"><feColorMatrix values="-1 0 0 0 1 0 -1 0 0 1 0 0 -1 0 1 0 0 0 1 0"/></filter><mask id="mask" x="0" y="0" width="347.03" height="252.54" maskUnits="userSpaceOnUse"><path class="cls-1" d="M288,224.15l-49,28.39-49-28.39V167.38L239,139l49,28.38Zm-104-182L134,70.56v56.77l50,28.39,50-28.39V70.56Zm61,85.12,51,28.41,51-28.37,0-56.77-51-28.4L245,70.53ZM266,14.77,240.5,0,215,14.77V44.31l25.5,14.78L266,44.31Zm-112,139L128.5,139,103,153.77v29.54l25.5,14.78L154,183.31Zm-34-97L94.5,42,69,56.77V86.31l25.5,14.78L120,86.31Zm-32,97L62.5,139,37,153.77v29.54l25.5,14.78L88,183.31Zm-35-67L27.5,72,2,86.77v29.54l25.5,14.78L53,116.31Z"/></mask></defs><title>consortium</title><g id="Layer_2" data-name="Layer 2"><g id="Layer_2-2" data-name="Layer 2"><path d="M426.26,46.44v7.9H402.91V128.8H395V54.34H371.77v-7.9Z"/><path d="M492.38,128.8H483.8L476.92,112H437.66l-6.88,16.81H422.2l35.09-85.06Zm-51.45-24.7h32.72L457.29,64.38Z"/><path d="M568.87,67a44.49,44.49,0,0,1,0,41.29,39,39,0,0,1-14,15,36.47,36.47,0,0,1-38.58,0,39.51,39.51,0,0,1-13.88-15,44.49,44.49,0,0,1,0-41.29,38.93,38.93,0,0,1,14-15A36.41,36.41,0,0,1,555,52,38.66,38.66,0,0,1,568.87,67ZM505.24,87.63a34.11,34.11,0,0,0,8.91,23.58c6,6.43,13.2,9.7,21.55,9.7s15.57-3.27,21.44-9.7a33.57,33.57,0,0,0,8.91-23.58c0-9.26-2.93-17.15-8.91-23.59a27.81,27.81,0,0,0-21.55-9.7c-8.35,0-15.46,3.16-21.44,9.7A33.92,33.92,0,0,0,505.24,87.63Z"/><path d="M334.67,167.44v74.47H376v7.89H326.77V167.44Z"/><path d="M438.58,167.44v7.9H401.34v29.9h37.24v7.9H401.34v28.77h37.24v7.89H393.45V167.44Z"/><path d="M526.24,249.8h-8.58L510.78,233H471.52l-6.88,16.81h-8.58l35.09-85.06Zm-51.45-24.7h32.72l-16.36-39.72Z"/><path d="M572,167.44a21.49,21.49,0,0,1,16,6.77,21.8,21.8,0,0,1,6.66,16.14,22.44,22.44,0,0,1-15.46,21.55l20,37.9h-9L571,213.14H551.51V249.8h-7.9V167.44Zm-20.53,37.8h18l4.85-.23a15.2,15.2,0,0,0,8.92-5.07,13.84,13.84,0,0,0,3.49-9.59,14.38,14.38,0,0,0-4.4-10.61,14.09,14.09,0,0,0-10.38-4.4H551.51Z"/><path d="M671.44,167.44V253.3l-46.94-65V249.8h-7.89V164l46.93,65V167.44Z"/><path d="M696.71,167.44V249.8h-7.9V167.44Z"/><path d="M769,167.44V253.3l-46.94-65V249.8H714.2V164l46.93,65V167.44Z"/><path d="M847.78,175.79l1.35,1-5.08,6.09-1.24-1a27.79,27.79,0,0,0-18-6.55,28.13,28.13,0,0,0-21.55,9.7,35.67,35.67,0,0,0,0,47.17,28.13,28.13,0,0,0,21.55,9.7A28.48,28.48,0,0,0,837,239.09a31.78,31.78,0,0,0,10.15-8V213.14H819v-7.9h36v28.54l-.34.57a40.48,40.48,0,0,1-13.31,11.39,35.33,35.33,0,0,1-16.59,4.06,36.85,36.85,0,0,1-19.4-5.52,39.51,39.51,0,0,1-13.88-15,44.49,44.49,0,0,1,0-41.29,38.93,38.93,0,0,1,14-15,35.55,35.55,0,0,1,19.29-5.53A34.88,34.88,0,0,1,847.78,175.79Z"/><g class="cls-2"><polygon class="cls-3" points="288 224.15 239 252.54 190 224.15 190 167.38 239 139 288 167.38 288 224.15"/><polygon class="cls-4" points="184 42.18 134 70.56 134 127.33 184 155.72 234 127.33 234 70.56 184 42.18"/><polygon class="cls-3" points="245.01 127.31 296 155.71 347.01 127.34 347.04 70.57 296.05 42.17 245.03 70.53 245.01 127.31"/><polygon class="cls-3" points="266 44.31 240.5 59.09 215 44.31 215 14.77 240.5 0 266 14.77 266 44.31"/><polygon class="cls-3" points="154 183.31 128.5 198.09 103 183.31 103 153.77 128.5 139 154 153.77 154 183.31"/><polygon class="cls-3" points="120 86.31 94.5 101.09 69 86.31 69 56.77 94.5 42 120 56.77 120 86.31"/><polygon class="cls-4" points="88 183.31 62.5 198.09 37 183.31 37 153.77 62.5 139 88 153.77 88 183.31"/><polygon class="cls-4" points="53 116.31 27.5 131.09 2 116.31 2 86.77 27.5 72 53 86.77 53 116.31"/></g><path d="M631.14,79.13V105c6.17,9.4,17.46,9.4,31.68,9.4,8.53,0,18.56-.24,24.73-.63a19.22,19.22,0,0,0-1.74,5.37c-5.45.24-14.14.4-22,.4-16.28,0-27.1,0-35.08-9.8-3.87,3.48-8,7-11.45,9.72a1,1,0,0,1-.71,1.26l-3.08-5.84A138.73,138.73,0,0,0,626,105.2v-21H614.4V79.13ZM619.37,49.51c5.3,3.39,11.38,8.61,14.14,12.48l-4.18,3.55c-2.61-4-8.61-9.32-13.91-12.87ZM642,70.44h13.51c.56-2.21,1.11-4.82,1.5-7.19h-21.8V58.67h14.3a35,35,0,0,0-5.69-9.16L648,47.69c2.61,2.84,5.29,6.79,6.24,9.56l-2.92,1.42H668l-2.06-.79a91.82,91.82,0,0,0,5.93-10.35l6.32,1.82c-.24.47-.79.71-1.66.79a85.54,85.54,0,0,1-6.09,8.53h15.72v4.58H662.5c-.55,2.13-1.34,4.82-2.13,7.19h18.8v38.94h-5.29v-2.76h-26.7v2.76H642Zm31.84,10.74V74.71h-26.7v6.47Zm-26.7,3.95v6.64h26.7V85.13Zm0,17.3h26.7V95.72h-26.7Z"/><path d="M764.57,100.38v4.5H732.1v10.27c0,5.69-2.37,5.77-16,5.77a18.61,18.61,0,0,0-1.82-4.58c2.92.08,5.77.15,7.82.15,4.27,0,4.74,0,4.74-1.5V104.88H694.42v-4.5h32.47V95.56l4.11.24a63.53,63.53,0,0,0,10-5.45H708.64V86.24h38l.87-.32,4,2.69a2.22,2.22,0,0,1-1.19.63,88.82,88.82,0,0,1-18.17,10v1.11Zm-63.83-20V90.5h-5V76.13h6.4L700.51,51l4.26,1.1a99,99,0,0,0,10.67-3.87l3.47,3.64a1.21,1.21,0,0,1-.87.31,1.32,1.32,0,0,1-.55-.08c-2.92,1-7.82,2.37-11.77,3.32l.24,3.63h12.16v3.88H706.27l.24,4.66h12v3.79H706.75l.31,4.74h45.11l.47-4.74H740.56V67.6H753l.39-4.66H741V59.06h12.64l.32-4.66H740.64V50.61h18.48c-.39,8.14-1.11,18.49-1.82,25.52h6.32V90.5h-5.21V80.39Zm37.45-30.33c-.16.47-.71.71-1.5.63a41.2,41.2,0,0,1-3.8,3.79,34.65,34.65,0,0,1,4.51,3.64l-2.85,2.68a37,37,0,0,0-4.66-3.95,48.63,48.63,0,0,1-7.82,4.9,28,28,0,0,0-2.76-2.53,48.32,48.32,0,0,0,7.42-4.5c-1.73-1.18-3.55-2.21-5.29-3.16l2.77-2.37c1.73.87,3.63,2,5.52,3.08a27.51,27.51,0,0,0,3.64-3.87Zm-13.35,12.8A56.22,56.22,0,0,1,730.21,66a31.08,31.08,0,0,0,4.11-4.43l4.81,1.74c-.15.47-.86.63-1.58.55a40.65,40.65,0,0,1-4.18,4.27,39.18,39.18,0,0,1,4.82,4.11l-2.85,2.6a37,37,0,0,0-5-4.26,45.77,45.77,0,0,1-8,5,30.34,30.34,0,0,0-2.85-2.52,51.37,51.37,0,0,0,7.75-4.66c-1.74-1.19-3.56-2.29-5.22-3.24Z"/><path d="M772.63,76.68c5.53-1.82,13.67-4.82,21.73-7.82l.79,4c-7.11,2.92-14.3,5.85-19.12,7.66a1.34,1.34,0,0,1-.79,1.27Zm32.08,1.58c0,5.14-2.61,5.14-12.72,5.14a16.77,16.77,0,0,0-1.5-4c1.89,0,3.63.08,5,.08,4.19,0,4.19,0,4.19-1.27V56.06H774.37V51.64h30.34Zm-16.12-10a43.35,43.35,0,0,0-10.58-8l2.92-3.16c3.87,2,8.45,5.21,10.66,7.66ZM802.18,87.9a55.34,55.34,0,0,0,3.47-7.9L812,81.74c-.15.47-.71.79-1.58.71-.79,1.58-1.89,3.63-3,5.45h26.7v33.25h-5.37v-3.23H788.83v3.23h-5.22V87.9Zm26.54,12.64v-8.3H788.83v8.3Zm-39.89,13h39.89v-8.69H788.83Zm43-42c-7.42,2.84-15.17,5.76-20.22,7.58a1.45,1.45,0,0,1-.79,1.26l-2.61-5c5.77-1.9,14.38-4.9,22.83-7.9Zm8.69-19.91v26.7c0,5.21-2.76,5.37-13.27,5.37a14.77,14.77,0,0,0-1.58-4.26c2.29.07,4.5.15,6.08.15,3.32,0,3.79-.08,3.79-1.34V56.06H809.92V51.64Zm-25.36,5.53c3.87,1.89,8.53,5,10.83,7.42l-3,3.56c-2.13-2.53-6.79-5.69-10.66-7.74Z"/><path d="M181.15,297.42l1.35,1-5.08,6.09-1.24-1A27.79,27.79,0,0,0,158.13,297a28.13,28.13,0,0,0-21.55,9.7,35.67,35.67,0,0,0,0,47.17c6,6.43,13.2,9.7,21.55,9.7A28.39,28.39,0,0,0,176.18,357l1.24-1,5.08,6-1.35,1.13a35.48,35.48,0,0,1-23,8.35,36.9,36.9,0,0,1-19.41-5.53,39.57,39.57,0,0,1-13.87-15,44.49,44.49,0,0,1,0-41.29,38.93,38.93,0,0,1,14-15,35.52,35.52,0,0,1,19.29-5.53A34.9,34.9,0,0,1,181.15,297.42Z"/><path d="M271.4,309.61a44.49,44.49,0,0,1,0,41.29,39,39,0,0,1-14,15,36.41,36.41,0,0,1-38.58,0,39.51,39.51,0,0,1-13.88-15,44.49,44.49,0,0,1,0-41.29,38.93,38.93,0,0,1,14-15,36.41,36.41,0,0,1,38.58,0A38.66,38.66,0,0,1,271.4,309.61Zm-63.63,20.64a34.12,34.12,0,0,0,8.91,23.59c6,6.43,13.2,9.7,21.55,9.7s15.57-3.27,21.44-9.7a33.57,33.57,0,0,0,8.91-23.59c0-9.25-2.93-17.14-8.91-23.58a27.81,27.81,0,0,0-21.55-9.7c-8.35,0-15.46,3.16-21.44,9.7A33.92,33.92,0,0,0,207.77,330.25Z"/><path d="M348.8,289.07v85.86l-46.94-65v61.49H294V285.58l46.94,65V289.07Z"/><path d="M407.46,292.12a23,23,0,0,1,9.82,8.24l.9,1.35-6.32,4.74-1-1.58a15.68,15.68,0,0,0-7-5.75A23,23,0,0,0,393.36,297a22.38,22.38,0,0,0-13.76,4.18c-3.73,2.7-5.53,6-5.53,9.7a10.84,10.84,0,0,0,2.71,6.88,18.9,18.9,0,0,0,7.33,5.19c1.13.45,2.59.9,4.29,1.47,4.17,1.35,6.54,2.14,7,2.37.68.22,1.47.45,2.6.9a19.17,19.17,0,0,1,2.37.79c2,.68,3.61,1.24,4.85,1.69a25.2,25.2,0,0,1,11.28,8,17.08,17.08,0,0,1,4.17,11.51q0,9.13-8.12,15.57a32.49,32.49,0,0,1-38.36-.11c-5.42-4.29-8-9.37-8-15.46V348h7.9v1.69c0,3.61,1.92,6.88,5.64,9.7a23.13,23.13,0,0,0,13.76,4.18,22.69,22.69,0,0,0,13.77-4.18c3.83-2.82,5.53-6.09,5.53-9.7a10.67,10.67,0,0,0-2.49-6.77,15.13,15.13,0,0,0-7-5.08c-1.36-.56-3.05-1.12-5.08-1.8s-3.5-1.24-4.4-1.47l-7.33-2.48-4.06-1.35a27.74,27.74,0,0,1-11.85-8,18.4,18.4,0,0,1-4.4-11.85q0-9.32,8.12-15.57c5.42-4.29,11.74-6.21,19.07-6.21A32.26,32.26,0,0,1,407.46,292.12Z"/><path d="M509.57,309.61a44.57,44.57,0,0,1,0,41.29,39,39,0,0,1-14,15,36.43,36.43,0,0,1-38.59,0,39.59,39.59,0,0,1-13.88-15,44.57,44.57,0,0,1,0-41.29,39.08,39.08,0,0,1,14-15,36.43,36.43,0,0,1,38.59,0A38.74,38.74,0,0,1,509.57,309.61Zm-63.64,20.64a34.08,34.08,0,0,0,8.92,23.59c6,6.43,13.2,9.7,21.55,9.7s15.57-3.27,21.43-9.7a33.58,33.58,0,0,0,8.92-23.59c0-9.25-2.94-17.14-8.92-23.58a27.78,27.78,0,0,0-21.55-9.7c-8.35,0-15.45,3.16-21.43,9.7A33.88,33.88,0,0,0,445.93,330.25Z"/><path d="M560.56,289.07a21.49,21.49,0,0,1,16,6.77A21.84,21.84,0,0,1,583.24,312,22.16,22.16,0,0,1,579,325.4a21.9,21.9,0,0,1-11.17,8.13l20,37.91h-9l-19.18-36.67H540v36.67h-7.9V289.07ZM540,326.87h18.05l4.85-.23a15.13,15.13,0,0,0,8.91-5.07,13.8,13.8,0,0,0,3.5-9.59,14.42,14.42,0,0,0-4.4-10.61,14.09,14.09,0,0,0-10.38-4.4H540Z"/><path d="M659.62,289.07V297H636.26v74.47h-7.89V297H605.13v-7.9Z"/><path d="M684.89,289.07v82.37H677V289.07Z"/><path d="M710.27,289.07V344.7c0,5.07,2.15,9.47,6.21,13.31a21.3,21.3,0,0,0,14.78,5.53A21,21,0,0,0,746,357.9c4.06-3.84,6.09-8.24,6.09-13.43v-55.4H760v55.51a25.2,25.2,0,0,1-8.46,19.07,30.36,30.36,0,0,1-40.73-.11,25.2,25.2,0,0,1-8.46-19.07v-55.4Z"/><path d="M814.07,336.23l36.55-50.65v85.86h-7.89V310l-28.66,39.71L785.41,310v61.49h-7.9V285.58Z"/></g></g></svg>