<svg xmlns="http://www.w3.org/2000/svg" xmlns:xlink="http://www.w3.org/1999/xlink" viewBox="0 0 1170 1016"><defs><style>.cls-1{fill:url(#linear-gradient);filter:url(#luminosity-invert);}.cls-2{fill:#fff;}.cls-3{mask:url(#mask);}.cls-4{fill:#29abe2;}.cls-5{fill:none;stroke:#29abe2;stroke-miterlimit:10;stroke-width:4px;}</style><linearGradient id="linear-gradient" x1="146" y1="397.95" x2="491.03" y2="397.95" gradientUnits="userSpaceOnUse"><stop offset="0" stop-color="#fff"/><stop offset="0" stop-color="#fefefe"/><stop offset="0.23" stop-color="#b2b2b2"/><stop offset="0.43" stop-color="#737373"/><stop offset="0.62" stop-color="#414141"/><stop offset="0.78" stop-color="#1e1e1e"/><stop offset="0.91" stop-color="#080808"/><stop offset="1"/></linearGradient><filter id="luminosity-invert" filterUnits="userSpaceOnUse" color-interpolation-filters="sRGB"><feColorMatrix values="-1 0 0 0 1 0 -1 0 0 1 0 0 -1 0 1 0 0 0 1 0"/></filter><mask id="mask" x="144" y="271.68" width="347.03" height="252.54" maskUnits="userSpaceOnUse"><path class="cls-1" d="M432,495.83l-49,28.39-49-28.39V439.07l49-28.39,49,28.39Zm-104-182-50,28.38V399l50,28.38L378,399V342.24ZM389,399l51,28.4L491,399l0-56.78-51-28.4-51,28.37Zm21-112.54-25.5-14.77L359,286.45V316l25.5,14.77L410,316Zm-112,139-25.5-14.77L247,425.45V455l25.5,14.77L298,455Zm-34-97-25.5-14.77L213,328.45V358l25.5,14.77L264,358Zm-32,97-25.5-14.77L181,425.45V455l25.5,14.77L232,455Zm-35-67-25.5-14.77L146,358.45V388l25.5,14.77L197,388Z"/></mask></defs><title>consortium_square</title><g id="Layer_2" data-name="Layer 2"><rect class="cls-2" y="-0.5" width="1170" height="1016"/><path d="M570.26,318.13V326H546.91v74.47H539V326H515.77v-7.89Z"/><path d="M636.38,400.49H627.8l-6.88-16.81H581.66l-6.88,16.81H566.2l35.09-85.07Zm-51.45-24.71h32.72l-16.36-39.72Z"/><path d="M712.87,338.66a44.49,44.49,0,0,1,0,41.29,38.88,38.88,0,0,1-14,15,36.41,36.41,0,0,1-38.58,0,39.44,39.44,0,0,1-13.88-15,44.49,44.49,0,0,1,0-41.29,38.93,38.93,0,0,1,14-15,36.47,36.47,0,0,1,38.58,0A38.66,38.66,0,0,1,712.87,338.66Zm-63.63,20.65a34.11,34.11,0,0,0,8.91,23.58c6,6.43,13.2,9.7,21.55,9.7s15.57-3.27,21.44-9.7a33.57,33.57,0,0,0,8.91-23.58c0-9.26-2.93-17.15-8.91-23.58A27.79,27.79,0,0,0,679.59,326c-8.35,0-15.46,3.16-21.44,9.71A33.88,33.88,0,0,0,649.24,359.31Z"/><path d="M478.67,439.13v74.46H520v7.9H470.77V439.13Z"/><path d="M582.58,439.13V447H545.34v29.9h37.24v7.9H545.34v28.77h37.24v7.9H537.45V439.13Z"/><path d="M670.24,521.49h-8.58l-6.88-16.81H615.52l-6.88,16.81h-8.58l35.09-85.07Zm-51.45-24.71h32.72l-16.36-39.72Z"/><path d="M716,439.13a21.48,21.48,0,0,1,16,6.76A21.8,21.8,0,0,1,738.72,462a22.42,22.42,0,0,1-15.46,21.55l20,37.91h-9L715,484.82H695.51v36.67h-7.9V439.13Zm-20.53,37.79h18l4.85-.22a15.22,15.22,0,0,0,8.92-5.08,13.84,13.84,0,0,0,3.49-9.59,14.38,14.38,0,0,0-4.4-10.61A14.09,14.09,0,0,0,716,447H695.51Z"/><path d="M815.44,439.13V525L768.5,460v61.49h-7.89V435.63l46.93,65V439.13Z"/><path d="M840.71,439.13v82.36h-7.9V439.13Z"/><path d="M913,439.13V525l-46.94-65v61.49H858.2V435.63l46.93,65V439.13Z"/><path d="M991.78,447.47l1.35,1-5.08,6.09-1.24-1a27.79,27.79,0,0,0-18-6.55,28.11,28.11,0,0,0-21.55,9.71,35.66,35.66,0,0,0,0,47.16,28.13,28.13,0,0,0,21.55,9.7A28.48,28.48,0,0,0,981,510.77a31.78,31.78,0,0,0,10.15-8V484.82H963v-7.9h36v28.55l-.34.56a40.62,40.62,0,0,1-13.31,11.4,35.45,35.45,0,0,1-16.59,4.06,36.86,36.86,0,0,1-19.4-5.53,39.44,39.44,0,0,1-13.88-15,44.49,44.49,0,0,1,0-41.29,38.93,38.93,0,0,1,14-15,35.54,35.54,0,0,1,19.29-5.52A34.87,34.87,0,0,1,991.78,447.47Z"/><g class="cls-3"><polygon class="cls-4" points="432 495.83 383 524.22 334 495.83 334 439.06 383 410.68 432 439.06 432 495.83"/><polygon class="cls-5" points="328 313.86 278 342.24 278 399.02 328 427.4 378 399.02 378 342.24 328 313.86"/><polygon class="cls-4" points="389.01 398.99 440 427.39 491.01 399.02 491.04 342.25 440.05 313.85 389.04 342.21 389.01 398.99"/><polygon class="cls-4" points="410 316 384.5 330.77 359 316 359 286.45 384.5 271.68 410 286.45 410 316"/><polygon class="cls-4" points="298 455 272.5 469.77 247 455 247 425.45 272.5 410.68 298 425.45 298 455"/><polygon class="cls-4" points="264 358 238.5 372.77 213 358 213 328.45 238.5 313.68 264 328.45 264 358"/><polygon class="cls-5" points="232 455 206.5 469.77 181 455 181 425.45 206.5 410.68 232 425.45 232 455"/><polygon class="cls-5" points="197 388 171.5 402.77 146 388 146 358.45 171.5 343.68 197 358.45 197 388"/></g><path d="M775.14,350.81v25.83c6.17,9.4,17.46,9.4,31.68,9.4,8.53,0,18.56-.23,24.73-.63a19.22,19.22,0,0,0-1.74,5.37c-5.45.24-14.14.4-22,.4-16.28,0-27.1,0-35.08-9.8-3.87,3.48-8,7-11.45,9.72a1,1,0,0,1-.71,1.26l-3.08-5.84A136.92,136.92,0,0,0,770,376.88v-21H758.4v-5.06Zm-11.77-29.62c5.3,3.39,11.38,8.61,14.14,12.48l-4.18,3.55c-2.61-4-8.61-9.32-13.91-12.87ZM786,342.12h13.51c.56-2.21,1.11-4.82,1.5-7.19h-21.8v-4.58h14.3a35,35,0,0,0-5.69-9.16l4.11-1.82c2.61,2.84,5.29,6.8,6.24,9.56l-2.92,1.42H812l-2.06-.79a91.82,91.82,0,0,0,5.93-10.35l6.32,1.82c-.24.47-.79.71-1.66.79a85.54,85.54,0,0,1-6.09,8.53h15.72v4.58H806.5c-.55,2.14-1.34,4.82-2.13,7.19h18.8v38.95h-5.29V378.3h-26.7v2.77H786Zm31.84,10.75v-6.48h-26.7v6.48Zm-26.7,3.94v6.64h26.7v-6.64Zm0,17.3h26.7V367.4h-26.7Z"/><path d="M908.57,372.06v4.5H876.1v10.27c0,5.69-2.37,5.77-16,5.77a18.61,18.61,0,0,0-1.82-4.58c2.92.08,5.77.16,7.82.16,4.27,0,4.74,0,4.74-1.51V376.56H838.42v-4.5h32.47v-4.82l4.11.24A63.53,63.53,0,0,0,885,362H852.64v-4.11h38l.87-.32,4,2.69a2.16,2.16,0,0,1-1.19.63,89.32,89.32,0,0,1-18.17,10v1.1Zm-63.83-20v10.11h-5V347.81h6.4l-1.58-25.12,4.26,1.1a99,99,0,0,0,10.67-3.87l3.47,3.64a1.21,1.21,0,0,1-.87.31,1.32,1.32,0,0,1-.55-.08c-2.92,1-7.82,2.38-11.77,3.32l.24,3.64h12.16v3.87H850.27l.24,4.66h12v3.79H850.75l.31,4.74h45.11l.47-4.74H884.56v-3.79H897l.39-4.66H885v-3.87h12.64l.32-4.66H884.64v-3.8h18.48c-.39,8.14-1.11,18.49-1.82,25.52h6.32v14.38h-5.21V352.08Zm37.45-30.34c-.16.47-.71.71-1.5.63a42.54,42.54,0,0,1-3.8,3.8,33.85,33.85,0,0,1,4.51,3.63l-2.85,2.68a37.81,37.81,0,0,0-4.66-4,48.63,48.63,0,0,1-7.82,4.9,29.28,29.28,0,0,0-2.76-2.53,48.32,48.32,0,0,0,7.42-4.5c-1.73-1.18-3.55-2.21-5.29-3.16l2.77-2.37c1.73.87,3.63,2,5.52,3.08a27.51,27.51,0,0,0,3.64-3.87Zm-13.35,12.8a56.22,56.22,0,0,1,5.37,3.16,30,30,0,0,0,4.11-4.43l4.81,1.74c-.15.48-.86.63-1.58.56a41.59,41.59,0,0,1-4.18,4.26,39.18,39.18,0,0,1,4.82,4.11l-2.85,2.6a37,37,0,0,0-5-4.26,46.45,46.45,0,0,1-8,5,29,29,0,0,0-2.85-2.53,51.37,51.37,0,0,0,7.75-4.66c-1.74-1.19-3.56-2.29-5.22-3.24Z"/><path d="M916.63,348.36c5.53-1.82,13.67-4.82,21.73-7.82l.79,3.95c-7.11,2.92-14.3,5.85-19.12,7.66a1.33,1.33,0,0,1-.79,1.27Zm32.08,1.58c0,5.14-2.61,5.14-12.72,5.14a16.77,16.77,0,0,0-1.5-4c1.89,0,3.63.08,5,.08,4.19,0,4.19,0,4.19-1.27V327.74H918.37v-4.42h30.34ZM932.59,340A43.35,43.35,0,0,0,922,332l2.92-3.16c3.87,2,8.45,5.21,10.66,7.66Zm13.59,19.59a55.34,55.34,0,0,0,3.47-7.9l6.32,1.74c-.15.47-.71.79-1.58.71-.79,1.58-1.89,3.63-3,5.45h26.7v33.26h-5.37V389.6H932.83v3.24h-5.22V359.58Zm26.54,12.64v-8.3H932.83v8.3Zm-39.89,13h39.89v-8.69H932.83Zm43-42c-7.42,2.84-15.17,5.76-20.22,7.58a1.48,1.48,0,0,1-.79,1.27l-2.61-5c5.77-1.9,14.38-4.9,22.83-7.9Zm8.69-19.91V350c0,5.21-2.76,5.37-13.27,5.37a14.77,14.77,0,0,0-1.58-4.26c2.29.08,4.5.16,6.08.16,3.32,0,3.79-.08,3.79-1.35v-22.2H953.92v-4.42Zm-25.36,5.53c3.87,1.9,8.53,5,10.83,7.43l-3,3.55c-2.13-2.53-6.79-5.69-10.66-7.74Z"/><path d="M325.15,569.11l1.35,1-5.08,6.09-1.24-1a27.79,27.79,0,0,0-18.05-6.55,28.11,28.11,0,0,0-21.55,9.71,35.66,35.66,0,0,0,0,47.16c6,6.43,13.2,9.7,21.55,9.7a28.44,28.44,0,0,0,18.05-6.54l1.24-1,5.08,6-1.35,1.13a35.48,35.48,0,0,1-23,8.35,36.9,36.9,0,0,1-19.41-5.53,39.49,39.49,0,0,1-13.87-15,44.49,44.49,0,0,1,0-41.29,38.93,38.93,0,0,1,14-15,35.51,35.51,0,0,1,19.29-5.52A34.84,34.84,0,0,1,325.15,569.11Z"/><path d="M415.4,581.29a44.49,44.49,0,0,1,0,41.29,38.88,38.88,0,0,1-14,15,36.41,36.41,0,0,1-38.58,0,39.44,39.44,0,0,1-13.88-15,44.49,44.49,0,0,1,0-41.29,38.93,38.93,0,0,1,14-15,36.47,36.47,0,0,1,38.58,0A38.66,38.66,0,0,1,415.4,581.29Zm-63.63,20.65a34.11,34.11,0,0,0,8.91,23.58c6,6.43,13.2,9.7,21.55,9.7s15.57-3.27,21.44-9.7a33.57,33.57,0,0,0,8.91-23.58c0-9.25-2.93-17.15-8.91-23.58a27.79,27.79,0,0,0-21.55-9.71c-8.35,0-15.46,3.16-21.44,9.71A33.9,33.9,0,0,0,351.77,601.94Z"/><path d="M492.8,560.76v85.86l-46.94-65v61.49H438V557.26l46.94,65V560.76Z"/><path d="M551.46,563.8a23,23,0,0,1,9.82,8.24l.9,1.35-6.32,4.74-1-1.58a15.68,15.68,0,0,0-7-5.75,23,23,0,0,0-10.49-2.15,22.38,22.38,0,0,0-13.76,4.18c-3.73,2.71-5.53,6-5.53,9.7a10.84,10.84,0,0,0,2.71,6.88,18.9,18.9,0,0,0,7.33,5.19c1.13.45,2.59.91,4.29,1.47,4.17,1.35,6.54,2.14,7,2.37.68.23,1.47.45,2.6.9a21.08,21.08,0,0,1,2.37.79c2,.68,3.61,1.24,4.85,1.69a25.2,25.2,0,0,1,11.28,8,17.08,17.08,0,0,1,4.17,11.51q0,9.13-8.12,15.57a32.49,32.49,0,0,1-38.36-.11c-5.42-4.29-8-9.37-8-15.46v-1.69h7.9v1.69c0,3.61,1.92,6.88,5.64,9.7a23.13,23.13,0,0,0,13.76,4.18A22.69,22.69,0,0,0,551.24,631c3.83-2.82,5.53-6.09,5.53-9.7a10.67,10.67,0,0,0-2.49-6.77,15.12,15.12,0,0,0-7-5.07c-1.36-.57-3-1.13-5.08-1.81s-3.5-1.24-4.4-1.47l-7.33-2.48-4.06-1.35a27.74,27.74,0,0,1-11.85-8,18.4,18.4,0,0,1-4.4-11.85q0-9.3,8.12-15.57c5.42-4.29,11.74-6.2,19.07-6.2A32.26,32.26,0,0,1,551.46,563.8Z"/><path d="M653.57,581.29a44.57,44.57,0,0,1,0,41.29,39,39,0,0,1-14,15,36.43,36.43,0,0,1-38.59,0,39.52,39.52,0,0,1-13.88-15,44.57,44.57,0,0,1,0-41.29,39.08,39.08,0,0,1,14-15,36.48,36.48,0,0,1,38.59,0A38.74,38.74,0,0,1,653.57,581.29Zm-63.64,20.65a34.07,34.07,0,0,0,8.92,23.58c6,6.43,13.2,9.7,21.55,9.7s15.57-3.27,21.43-9.7a33.58,33.58,0,0,0,8.92-23.58c0-9.25-2.94-17.15-8.92-23.58a27.76,27.76,0,0,0-21.55-9.71c-8.35,0-15.45,3.16-21.43,9.71A33.86,33.86,0,0,0,589.93,601.94Z"/><path d="M704.56,560.76a21.45,21.45,0,0,1,16,6.77,21.8,21.8,0,0,1,6.66,16.13A22.16,22.16,0,0,1,723,597.08a21.9,21.9,0,0,1-11.17,8.13l20,37.91h-9l-19.18-36.67H684v36.67h-7.9V560.76ZM684,598.55h18.05l4.85-.22a15.19,15.19,0,0,0,8.91-5.08,13.8,13.8,0,0,0,3.5-9.59,14.44,14.44,0,0,0-4.4-10.61,14.09,14.09,0,0,0-10.38-4.4H684Z"/><path d="M803.62,560.76v7.89H780.26v74.47h-7.89V568.65H749.13v-7.89Z"/><path d="M828.89,560.76v82.36H821V560.76Z"/><path d="M854.27,560.76v55.62c0,5.08,2.15,9.48,6.21,13.31a21.3,21.3,0,0,0,14.78,5.53A21,21,0,0,0,890,629.58c4.06-3.84,6.09-8.24,6.09-13.43V560.76H904v55.51a25.19,25.19,0,0,1-8.46,19.06,30.36,30.36,0,0,1-40.73-.11,25.2,25.2,0,0,1-8.46-19.07V560.76Z"/><path d="M958.07,607.92l36.55-50.66v85.86h-7.89V581.63l-28.66,39.71-28.66-39.71v61.49h-7.9V557.26Z"/></g></svg>