<?xml version="1.0" encoding="iso-8859-1"?>
<!-- Generator: Adobe Illustrator 16.0.4, SVG Export Plug-In . SVG Version: 6.00 Build 0)  -->
<!DOCTYPE svg PUBLIC "-//W3C//DTD SVG 1.1//EN" "http://www.w3.org/Graphics/SVG/1.1/DTD/svg11.dtd">
<svg version="1.1" xmlns="http://www.w3.org/2000/svg" xmlns:xlink="http://www.w3.org/1999/xlink" x="0px" y="0px" width="108px"
	 height="108px" viewBox="0 0 108 108" style="enable-background:new 0 0 108 108;" xml:space="preserve">
<g id="White_background">
	<circle style="fill:#FFFFFF;" cx="54" cy="54" r="54"/>
</g>
<g id="Seal_of_transparency">
	<g>
		<path style="fill:#9FB1BF;" d="M42.339,13.683c0.917-0.248,1.317-0.834,1.098-1.652c-0.215-0.794-0.827-1.095-1.745-0.847
			l-0.682,0.185l0.672,2.491L42.339,13.683z"/>
		<polygon style="fill:#9FB1BF;" points="51.206,10.18 50.379,13.312 52.364,13.201 		"/>
		<path style="fill:#9FB1BF;" d="M19.223,30.085c1.385,1.086,2.73,1.18,3.516,0.181c0.792-1.01,0.373-2.286-1.01-3.371
			c-1.383-1.086-2.722-1.19-3.514-0.181C17.43,27.713,17.84,28.999,19.223,30.085z"/>
		<path style="fill:#9FB1BF;" d="M77.824,18.019c0.445-0.721,0.241-1.346-0.59-1.858l-0.471-0.291l-1.369,2.22l0.438,0.271
			C76.663,18.873,77.346,18.795,77.824,18.019z"/>
		<path style="fill:#9FB1BF;" d="M89.992,30.026c0.668-0.48,0.732-1.159,0.178-1.93l-0.411-0.574l-2.096,1.507l0.397,0.552
			C88.615,30.352,89.305,30.52,89.992,30.026z"/>
		<polygon style="fill:#9FB1BF;" points="13.436,44.961 10.213,45.278 13.016,46.908 		"/>
		<path style="fill:#9FB1BF;" d="M67.023,4.712C39.884-2.56,11.985,13.547,4.712,40.688C1.11,54.132,3.248,67.76,9.619,78.977
			c1.182-0.273,2.364-0.528,3.548-0.78c0.517-0.108,1.032-0.216,1.547-0.321c0.972-0.199,1.942-0.389,2.912-0.572
			c0.598-0.112,1.194-0.22,1.79-0.326c0.775-0.141,1.553-0.277,2.328-0.406c0.487-0.082,0.974-0.165,1.46-0.242
			c1.128-0.181,2.258-0.354,3.386-0.514c1.045-0.15,2.089-0.291,3.133-0.422c0.061-0.007,0.121-0.015,0.182-0.021
			c7.466-0.939,14.907-1.437,22.347-1.499c1.165-0.01,2.331-0.009,3.497,0.003c6.136,0.063,12.271,0.421,18.422,1.087
			c0.999,0.107,1.998,0.226,2.998,0.349c-0.004,0.005-0.007,0.008-0.011,0.013c0.953,0.119,1.907,0.239,2.86,0.373
			c0.002-0.002,0.004-0.005,0.007-0.007c0.456,0.062,0.912,0.12,1.369,0.187c-0.003,0.003-0.005,0.005-0.008,0.01
			c4.109,0.597,8.22,1.332,12.326,2.192c0.137,0.03,0.273,0.058,0.411,0.087c1.316,0.278,2.633,0.569,3.948,0.875
			c2.103-3.699,3.774-7.719,4.926-12.02C110.271,39.883,94.164,11.986,67.023,4.712z M91.643,27.306
			c1.252,1.74,1.193,3.332-0.287,4.396c-1,0.719-2.037,0.707-3.017,0.114l-1.38,3.665L85.3,33.811l1.411-3.402l-0.322-0.448
			l-2.471,1.776l-1.273-1.772l7.191-5.171L91.643,27.306z M86.085,20.823l-3.509,8.468l-1.89-1.225l0.808-1.868l-2.266-2.053
			l-1.671,0.965l-1.601-1.448l8.339-4.459L86.085,20.823z M78.215,14.816c1.837,1.134,2.457,2.649,1.445,4.29
			c-1.053,1.707-2.807,1.833-4.633,0.706l-0.48-0.297l-1.546,2.505l-1.87-1.153l4.655-7.547L78.215,14.816z M68.097,17.837
			c0.587,0.23,1.091,0.137,1.283-0.354c0.183-0.466,0.027-0.775-0.96-1.671c-1.402-1.279-1.91-2.099-1.377-3.463
			c0.623-1.591,2.198-1.953,3.777-1.335c1.077,0.421,1.691,0.896,2.273,1.523l-0.984,1.601c-0.573-0.72-1.258-1.265-1.892-1.513
			c-0.622-0.243-1.024-0.097-1.174,0.285c-0.164,0.419-0.016,0.711,0.858,1.509c1.55,1.365,2.012,2.262,1.497,3.578
			c-0.702,1.795-2.326,2.069-3.965,1.428c-1.112-0.435-1.952-1.039-2.641-1.75l0.982-1.629
			C66.448,16.834,67.271,17.515,68.097,17.837z M57.962,7.926l2.101,0.36l2.376,5.435l0.837-4.885l2.012,0.347l-1.496,8.729
			l-1.873-0.32l-2.546-5.816L58.477,17l-2.012-0.344L57.962,7.926z M41.471,9.529c2.07-0.559,3.539,0.055,4.015,1.816
			c0.321,1.19-0.057,2.156-0.956,2.865l2.873,2.52l2.588-8.743l2.409-0.135l3.558,8.44l-2.196,0.484l-0.762-1.886l-3.05,0.171
			l-0.487,1.865l-2.153,0.122l0.061-0.206l-2.041,0.918l-2.689-2.52l-0.532,0.145l0.793,2.938l-2.107,0.568l-2.31-8.554
			L41.471,9.529z M22.557,54.65c-0.004-0.213-0.016-0.425-0.016-0.639c0-8.074,3.045-15.437,8.045-21.007l16.036,19.978
			L22.557,54.65z M37.651,57.379l-13.445,6.748c-0.861-2.539-1.402-5.225-1.587-8.01L37.651,57.379z M50.296,46.989L31.688,31.833
			c4.866-4.898,11.334-8.196,18.55-9.059L50.296,46.989z M36.037,11.232l1.102,1.532l-2.336,1.155l3.103,6.275l-1.979,0.979
			L32.822,14.9l-2.245,1.11l-0.825-1.67L36.037,11.232z M50.232,19.817l0.003,1.195c-7.735,0.929-14.659,4.487-19.849,9.761
			l-0.922-0.751C34.878,24.484,42.128,20.756,50.232,19.817z M25.6,17.177l1.194,1.397l-2.375,2.029l1.177,1.378l1.76-1.502
			l1.428,1.197l-1.994,1.703l2.195,2.57l-1.66,1.419l-5.76-6.743L25.6,17.177z M16.869,25.641c1.585-2.019,4.062-2.18,6.213-0.491
			c2.15,1.689,2.594,4.158,1.001,6.188c-1.569,2-4.054,2.171-6.204,0.482C15.717,30.124,15.283,27.66,16.869,25.641z M7.048,51.085
			l1.773,0.023l-0.044,3.367l1.67,0.021l0.033-2.569l1.764-0.261l-0.037,2.853l1.877,0.025l0.045-3.483l1.785,0.024l-0.072,5.641
			L6.977,56.61L7.048,51.085z M16.311,63.815l-1.902-0.017c0.334-0.978,0.501-2.034,0.358-2.908
			c-0.101-0.621-0.438-1.009-0.957-0.924c-0.495,0.081-0.681,0.371-0.95,1.677c-0.387,1.859-0.834,2.713-2.279,2.949
			c-1.686,0.273-2.801-0.899-3.073-2.572c-0.186-1.14-0.09-1.911,0.153-2.732l1.88,0.032c-0.328,0.861-0.448,1.727-0.339,2.398
			c0.107,0.66,0.438,0.931,0.844,0.865c0.444-0.073,0.621-0.349,0.861-1.507c0.386-2.028,0.922-2.883,2.318-3.11
			c1.9-0.31,2.965,0.949,3.247,2.686C16.664,61.831,16.571,62.861,16.311,63.815z M17.254,44.563l-2.021,0.234l-0.646,2.987
			l1.672,0.966l-0.456,2.11l-8.03-4.992l0.51-2.36l9.089-1.194L17.254,44.563z M17.99,41.908l-8.15-3.479l0.862-2.02l6.401,2.733
			l1.069-2.504l1.864,0.475L17.99,41.908z M19.575,54.266c0-9.077,3.491-17.337,9.198-23.52l0.749,0.934
			c-5.44,5.957-8.761,13.883-8.761,22.586c0,0.17,0.009,0.339,0.012,0.509l-1.186,0.082C19.584,54.659,19.575,54.463,19.575,54.266z
			 M21.449,65.51c-1.046-3.045-1.682-6.281-1.834-9.645l1.193,0.101c0.156,3.137,0.747,6.157,1.709,9.009L21.449,65.51z
			 M26.247,74.705c-1.727-2.363-3.158-4.954-4.25-7.716l1.144-0.322c1.127,2.828,2.626,5.469,4.438,7.856
			C27.135,74.584,26.691,74.64,26.247,74.705z M29.888,74.216c-2.018-2.407-3.678-5.124-4.909-8.064l21.234-5.969l-5.275,8.159
			l0.065,0.621l0.612,0.068l10.045-6.358l0.53,10.057C44.768,72.787,37.341,73.282,29.888,74.216z M55.293,64.032l-0.456,0.358
			L54.406,64l-0.704-5.404l-3.977,2.484l-0.566-0.068l-0.04-0.573l2.241-3.251l-8.958,1.82l-0.522-0.322l0.271-0.546l4.686-1.775
			l-2.8-0.385l-0.385-0.444l0.379-0.446l6.679-1.021l-6.791-8.024l0.013-0.6l0.601-0.057l8.381,6.216l-0.449-14.479
			c-0.006-0.238,0.17-0.434,0.406-0.459c0.238-0.022,0.445,0.14,0.486,0.374l2.402,14.603l2.794-3.794l0.543-0.143l0.252,0.511
			l-0.653,2.792l4.302-2.97l0.604,0.077l-0.019,0.607l-5.026,5.317l6.188,2.301l0.294,0.493l-0.453,0.375h-5.092l7.551,6.822
			l0.052,0.61l-0.354,0.175l-0.256-0.083l-9.892-6.924L55.293,64.032z M63.634,37.323l-0.579,0.189l-6.067,8.855l-4.04-23.8
			c0.354-0.011,0.707-0.027,1.062-0.027c10.067,0,19.021,4.732,24.782,12.087l-0.317-0.045L63.313,44.621l0.648-6.783L63.634,37.323
			z M56.043,72.738l2.862-11.073l13.788,12.011C67.134,73.118,61.588,72.805,56.043,72.738z M78.402,73.878L65.758,59.419
			l12.074,0.005c0.246,0,0.454-0.176,0.496-0.416c0.039-0.237-0.094-0.471-0.334-0.548l-15.16-5.222l16.274-17.911l0.006-0.289
			c3.993,5.275,6.365,11.847,6.365,18.972C85.479,61.549,82.822,68.46,78.402,73.878z M82.176,74.855
			c-0.445-0.066-0.891-0.123-1.337-0.188c4.346-5.651,6.932-12.723,6.932-20.402c0-18.504-14.999-33.504-33.503-33.504
			c-0.542,0-1.082,0.016-1.619,0.041l-0.2-1.179c0.604-0.031,1.21-0.048,1.819-0.048c19.159,0,34.689,15.532,34.689,34.69
			C88.957,61.978,86.434,69.096,82.176,74.855z M86.893,36.151l8.026-3.752l2.339,5.001l-1.604,0.752l-1.426-3.048l-1.513,0.707
			l1.089,2.327l-1.475,1.001l-1.207-2.583l-1.698,0.794l1.475,3.153l-1.618,0.756L86.893,36.151z M89.607,42.036l8.604-2.137
			l0.515,2.07l-4.027,4.362l4.813-1.195l0.492,1.983L91.4,49.256l-0.459-1.845l4.309-4.671l-5.15,1.279L89.607,42.036z
			 M100.17,60.726L96.223,62l3.215,2.446l-0.398,2.302l-4.974-4.104l-3.215-0.555l0.374-2.163l3.189,0.551l5.838-2.108
			L100.17,60.726z M100.108,56.551l-1.987-0.247c0.395-0.538,0.685-1.165,0.66-1.936c-0.043-1.387-1.123-2.24-2.818-2.189
			c-1.721,0.054-2.72,1.022-2.676,2.41c0.021,0.719,0.311,1.353,0.742,1.995l-1.828,0.339c-0.434-0.693-0.728-1.508-0.76-2.547
			c-0.082-2.646,1.642-4.307,4.441-4.392c2.748-0.085,4.649,1.541,4.732,4.213C100.644,55.134,100.461,55.898,100.108,56.551z"/>
		<polygon style="fill:#9FB1BF;" points="83.587,21.61 80.774,23.224 82.25,24.56 		"/>
	</g>
	<path style="fill:none;stroke:#D8A669;stroke-width:1.1676;stroke-miterlimit:10;" d="M20.987,69.334"/>
	<path style="fill:#9FB1BF;" d="M54,0C24.176,0,0,24.177,0,54c0,29.823,24.176,54,54,54s54-24.177,54-54C108,24.177,83.824,0,54,0z
		 M40.38,104.143C12.607,96.699-3.874,68.153,3.565,40.38C11.01,12.607,39.559-3.875,67.33,3.566
		c27.773,7.443,44.256,35.991,36.813,63.763C96.702,95.104,68.155,111.585,40.38,104.143z"/>
	<g>
		<path style="fill:#9FB1BF;" d="M73.334,95.438c-0.137-0.396-0.459-0.526-0.916-0.368l-0.34,0.118l0.43,1.242l0.327-0.113
			C73.292,96.158,73.475,95.846,73.334,95.438z"/>
		<polygon style="fill:#9FB1BF;" points="68.017,98.304 68.998,98.05 68.118,96.656 		"/>
		<path style="fill:#9FB1BF;" d="M49.849,98.051l-0.404-0.026l-0.182,2.769l0.405,0.026c0.797,0.052,1.32-0.333,1.384-1.3
			C51.113,98.573,50.613,98.101,49.849,98.051z"/>
		<path style="fill:#9FB1BF;" d="M53.702,89.57c-10.851,0-21.63,0.984-32.883,2.988c5.586,4.773,12.297,8.408,19.868,10.439
			c16.776,4.494,33.837,0.055,46.142-10.397C75.486,90.567,64.634,89.57,53.702,89.57z M36.854,98.44
			c0.43,0.13,0.761,0.133,1.113,0.065l0.416-1.368l-1.252-0.38l0.145-0.991l2.478,0.752l-0.895,2.942
			c-0.694,0.199-1.531,0.218-2.354-0.031c-1.958-0.595-2.64-2.208-2.062-4.113c0.581-1.913,2.11-2.865,3.988-2.294
			c0.787,0.239,1.326,0.618,1.729,1.062l-0.504,1.048c-0.364-0.472-0.843-0.891-1.522-1.097c-1.207-0.367-2.081,0.325-2.48,1.639
			C35.252,96.997,35.612,98.063,36.854,98.44z M44.537,99.321c-0.237,1.233-1.149,1.678-2.222,1.471
			c-1.086-0.208-1.731-0.939-1.493-2.179l0.516-2.679l1.105,0.213l-0.515,2.672c-0.11,0.572,0.083,0.955,0.577,1.05
			c0.501,0.096,0.814-0.183,0.924-0.749l0.517-2.685l1.104,0.212L44.537,99.321z M46.66,101.406l-1.108-0.144l0.579-4.475
			l1.108,0.144L46.66,101.406z M49.67,101.692l-1.581-0.104l0.295-4.506l1.555,0.102c1.567,0.103,2.324,1.063,2.236,2.402
			C52.088,100.926,51.191,101.792,49.67,101.692z M53.33,101.849l-0.062-4.506l2.808-0.039l0.013,0.901l-1.711,0.024l0.012,0.849
			l1.307-0.018l0.156,0.893l-1.45,0.021l0.014,0.954l1.77-0.025l0.013,0.908L53.33,101.849z M59.66,101.639
			c-0.864,0.083-1.607-0.035-2.286-0.27l0.104-1.379c0.693,0.291,1.45,0.462,2.092,0.401c0.455-0.043,0.752-0.269,0.716-0.649
			c-0.034-0.362-0.236-0.512-1.17-0.77c-1.329-0.37-1.927-0.735-2.027-1.795c-0.118-1.236,0.785-1.988,2.012-2.104
			c0.837-0.08,1.391,0.027,1.974,0.244l-0.114,1.361c-0.607-0.279-1.229-0.408-1.722-0.361c-0.483,0.046-0.696,0.272-0.668,0.57
			c0.031,0.325,0.223,0.466,1.051,0.697c1.452,0.377,2.046,0.809,2.144,1.831C61.896,100.807,60.933,101.518,59.66,101.639z
			 M65.275,100.758l-1.107,0.202l-0.641-3.51l-1.256,0.229l-0.17-0.934l3.516-0.641l0.325,0.905l-1.308,0.239L65.275,100.758z
			 M70.051,99.697l-0.568-0.866l-1.507,0.388l-0.058,0.981l-1.064,0.274l0.439-4.793l1.19-0.307l2.617,3.864L70.051,99.697z
			 M73.282,98.652l-1.05,0.363l-1.475-4.264l1.489-0.515c1.032-0.356,1.801-0.096,2.104,0.781c0.205,0.593,0.048,1.098-0.385,1.489
			l1.587,1.209l-1.057,0.565l-1.454-1.185l-0.266,0.092L73.282,98.652z"/>
	</g>
	<g>
		<path style="fill:#596872;" d="M22.318,85.423l-0.391,0.043l0.281,2.523l-2.487,0.277l-0.937-8.413l2.913-0.324
			c2.171-0.242,3.604,0.549,3.82,2.487C25.739,84.005,24.439,85.187,22.318,85.423z M21.755,81.363l-0.305,0.034l0.251,2.255
			l0.28-0.031c0.829-0.092,1.239-0.508,1.151-1.301C23.051,81.589,22.584,81.271,21.755,81.363z"/>
		<path style="fill:#596872;" d="M28.362,87.355l-0.706-8.434l2.506-0.209l0.527,6.307l2.384-0.199l0.521,2.098L28.362,87.355z"/>
		<path style="fill:#596872;" d="M37.705,78.153l2.803-0.146l3.23,8.028l-2.513,0.524l-0.568-1.479l-2.656,0.139l-0.342,1.441
			l-2.423,0.127L37.705,78.153z M38.44,83.293l1.554-0.082l-0.898-2.628L38.44,83.293z"/>
		<path style="fill:#596872;" d="M49.231,79.851l0.135,6.372l-2.512,0.053l-0.135-6.372l-2.268,0.048l-0.044-2.083l6.801-0.144
			l0.387,2.076L49.231,79.851z"/>
		<path style="fill:#596872;" d="M53.971,86.177l0.032-8.454l2.512,0.009l-0.032,8.455L53.971,86.177z"/>
		<path style="fill:#596872;" d="M64.351,86.36l-2.632-4.497l-0.138,4.411l-2.327-0.073l0.263-8.455l2.476,0.077l2.397,4.122
			l0.126-4.043l2.328,0.073l-0.263,8.454L64.351,86.36z"/>
		<path style="fill:#596872;" d="M72.805,86.916c-2.068-0.137-3.541-1.278-3.377-3.763l0.333-5.042l2.509,0.166l-0.336,5.079
			c-0.062,0.93,0.335,1.448,1.044,1.495c0.759,0.05,1.16-0.439,1.219-1.321l0.337-5.103l2.509,0.166l-0.333,5.042
			C76.546,86.094,74.849,87.051,72.805,86.916z"/>
		<path style="fill:#596872;" d="M86.302,87.985l0.229-5.164l-1.667,5.015l-2.427-0.252l-0.612-5.251l-0.826,5.102l-2.146-0.223
			l1.472-8.351l3.23,0.336l0.667,5.442l1.771-5.189l3.146,0.327l-0.276,8.474L86.302,87.985z"/>
	</g>
</g>
</svg>
