<svg xmlns="http://www.w3.org/2000/svg" xmlns:xlink="http://www.w3.org/1999/xlink" viewBox="0 0 347.03 252.54"><defs><style>.cls-1{fill:url(#linear-gradient);filter:url(#luminosity-invert);}.cls-2{mask:url(#mask);}.cls-3{fill:#29abe2;}.cls-4{fill:none;stroke:#29abe2;stroke-miterlimit:10;stroke-width:4px;}</style><linearGradient id="linear-gradient" x1="2" y1="126.27" x2="347.03" y2="126.27" gradientUnits="userSpaceOnUse"><stop offset="0" stop-color="#fff"/><stop offset="0" stop-color="#fefefe"/><stop offset="0.23" stop-color="#b2b2b2"/><stop offset="0.43" stop-color="#737373"/><stop offset="0.62" stop-color="#414141"/><stop offset="0.78" stop-color="#1e1e1e"/><stop offset="0.91" stop-color="#080808"/><stop offset="1"/></linearGradient><filter id="luminosity-invert" filterUnits="userSpaceOnUse" color-interpolation-filters="sRGB"><feColorMatrix values="-1 0 0 0 1 0 -1 0 0 1 0 0 -1 0 1 0 0 0 1 0"/></filter><mask id="mask" x="0" y="0" width="347.03" height="252.54" maskUnits="userSpaceOnUse"><path class="cls-1" d="M288,224.15l-49,28.39-49-28.39V167.38L239,139l49,28.38Zm-104-182L134,70.56v56.77l50,28.39,50-28.39V70.56Zm61,85.12,51,28.41,51-28.37,0-56.77-51-28.4L245,70.53ZM266,14.77,240.5,0,215,14.77V44.31l25.5,14.78L266,44.31Zm-112,139L128.5,139,103,153.77v29.54l25.5,14.78L154,183.31Zm-34-97L94.5,42,69,56.77V86.31l25.5,14.78L120,86.31Zm-32,97L62.5,139,37,153.77v29.54l25.5,14.78L88,183.31Zm-35-67L27.5,72,2,86.77v29.54l25.5,14.78L53,116.31Z"/></mask></defs><title>tli_hive</title><g id="Layer_2" data-name="Layer 2"><g id="Layer_4" data-name="Layer 4"><g class="cls-2"><polygon class="cls-3" points="288 224.15 239 252.54 190 224.15 190 167.38 239 139 288 167.38 288 224.15"/><polygon class="cls-4" points="184 42.18 134 70.56 134 127.33 184 155.72 234 127.33 234 70.56 184 42.18"/><polygon class="cls-3" points="245.01 127.31 296 155.71 347.01 127.34 347.04 70.57 296.05 42.17 245.03 70.53 245.01 127.31"/><polygon class="cls-3" points="266 44.31 240.5 59.09 215 44.31 215 14.77 240.5 0 266 14.77 266 44.31"/><polygon class="cls-3" points="154 183.31 128.5 198.09 103 183.31 103 153.77 128.5 139 154 153.77 154 183.31"/><polygon class="cls-3" points="120 86.31 94.5 101.09 69 86.31 69 56.77 94.5 42 120 56.77 120 86.31"/><polygon class="cls-4" points="88 183.31 62.5 198.09 37 183.31 37 153.77 62.5 139 88 153.77 88 183.31"/><polygon class="cls-4" points="53 116.31 27.5 131.09 2 116.31 2 86.77 27.5 72 53 86.77 53 116.31"/></g></g></g></svg>