<svg xmlns="http://www.w3.org/2000/svg" viewBox="0 0 1170 1016"><defs><style>.a{fill:#45387f;}.b{fill:#5f4d99;}.c{fill:#6d378b;}.d{fill:#804c98;}.e{fill:#9164a6;}.f{fill:#c583b7;}.g{fill:#a379b3;}.h,.l{fill:#7d6aac;}.i{fill:#58267d;}.j{fill:#872b77;}.k{fill:#ad4c96;}.l{font-size:38.47px;font-family:Ubuntu-Bold, Ubuntu;font-weight:700;letter-spacing:0.44em;}.m{letter-spacing:0.42em;}.n{letter-spacing:0.44em;}.o{letter-spacing:0.43em;}.p{letter-spacing:0.46em;}.q{letter-spacing:0.48em;}</style></defs><title>focus_hive</title><path class="a" d="M226.51,685.46V595.83h60v16.94H246.69v18.76h35.44v16.94H246.69v37Z"/><path class="a" d="M385.09,640.58a55.06,55.06,0,0,1-3.43,20.24,41.59,41.59,0,0,1-9.38,14.62,38.4,38.4,0,0,1-14.16,8.86,51.55,51.55,0,0,1-17.66,3,50.25,50.25,0,0,1-17.33-3,39.82,39.82,0,0,1-14.22-8.86,41.45,41.45,0,0,1-9.58-14.62,54.21,54.21,0,0,1-3.49-20.24,52.6,52.6,0,0,1,3.62-20.24,43.1,43.1,0,0,1,9.77-14.68,40.17,40.17,0,0,1,14.23-8.93,48.88,48.88,0,0,1,17-3,50.22,50.22,0,0,1,17.34,3A39.56,39.56,0,0,1,372,605.66a42.1,42.1,0,0,1,9.57,14.68A54.41,54.41,0,0,1,385.09,640.58Zm-68.42,0a40.69,40.69,0,0,0,1.61,11.9,27.09,27.09,0,0,0,4.66,9.12,20.52,20.52,0,0,0,7.44,5.88,25.46,25.46,0,0,0,20.11,0,20.56,20.56,0,0,0,7.5-5.88,27.09,27.09,0,0,0,4.66-9.12,41,41,0,0,0,1.61-11.9,41.6,41.6,0,0,0-1.61-12,27.16,27.16,0,0,0-4.66-9.19,20.56,20.56,0,0,0-7.5-5.88,23.58,23.58,0,0,0-10-2.07,22.84,22.84,0,0,0-10.08,2.13,21.15,21.15,0,0,0-7.44,5.95,27.21,27.21,0,0,0-4.66,9.18A40.9,40.9,0,0,0,316.67,640.58Z"/><path class="a" d="M442.78,687.27q-21.87,0-33.31-12.16T398,640.58a53.12,53.12,0,0,1,3.5-19.86A42.54,42.54,0,0,1,411.09,606a40,40,0,0,1,14.48-9.12,52.29,52.29,0,0,1,18.24-3.1,58.61,58.61,0,0,1,10.35.84,67.86,67.86,0,0,1,8.15,1.94,40.41,40.41,0,0,1,5.82,2.26c1.55.78,2.67,1.38,3.36,1.81l-5.82,16.3a48.22,48.22,0,0,0-9.64-3.75,45.73,45.73,0,0,0-12.48-1.55,27.48,27.48,0,0,0-9.12,1.55,20.58,20.58,0,0,0-7.89,5,24.7,24.7,0,0,0-5.49,8.86A37.15,37.15,0,0,0,419,640.19a47.39,47.39,0,0,0,1.35,11.58,24.74,24.74,0,0,0,4.4,9.25,21.2,21.2,0,0,0,8,6.14,28.26,28.26,0,0,0,11.9,2.26,55,55,0,0,0,7.89-.51,61.46,61.46,0,0,0,6.21-1.23,33.68,33.68,0,0,0,4.78-1.62q2.07-.9,3.75-1.68l5.56,16.17a46.93,46.93,0,0,1-12,4.65A70,70,0,0,1,442.78,687.27Z"/><path class="a" d="M520.77,687.27a45.09,45.09,0,0,1-16.3-2.65,30.28,30.28,0,0,1-11.31-7.37,29.4,29.4,0,0,1-6.6-11.25,46.39,46.39,0,0,1-2.14-14.43V595.83H504.6v54.06a30.39,30.39,0,0,0,1.23,9.25,17.17,17.17,0,0,0,3.36,6.21,12,12,0,0,0,5.18,3.43,20.49,20.49,0,0,0,6.66,1,16.3,16.3,0,0,0,12-4.53q4.59-4.51,4.59-15.39V595.83h20.18v55.74a45.5,45.5,0,0,1-2.2,14.49,29.55,29.55,0,0,1-6.72,11.32,30.26,30.26,0,0,1-11.51,7.31A47.84,47.84,0,0,1,520.77,687.27Z"/><path class="a" d="M601.61,670.07a29.4,29.4,0,0,0,7-.71,12.91,12.91,0,0,0,4.46-1.94,6.51,6.51,0,0,0,2.33-2.91,10.39,10.39,0,0,0,.64-3.75q0-4.39-4.13-7.31t-14.23-6.27q-4.41-1.56-8.8-3.56a32.5,32.5,0,0,1-7.89-5,24.06,24.06,0,0,1-5.69-7.37,23,23,0,0,1-2.2-10.54,26.14,26.14,0,0,1,2.33-11.19,23.83,23.83,0,0,1,6.6-8.47,30.09,30.09,0,0,1,10.34-5.37,46.53,46.53,0,0,1,13.71-1.87,54.92,54.92,0,0,1,26.52,6.2l-5.82,15.92a54.28,54.28,0,0,0-8.34-3.43A36.18,36.18,0,0,0,607.43,611q-7.24,0-10.41,2a6.76,6.76,0,0,0-3.17,6.15,7.14,7.14,0,0,0,1.16,4.14,11.49,11.49,0,0,0,3.3,3,29.18,29.18,0,0,0,4.91,2.45c1.86.74,3.91,1.49,6.15,2.27q7,2.58,12.16,5.11a32.69,32.69,0,0,1,8.6,5.88,21.5,21.5,0,0,1,5.11,7.89,31.77,31.77,0,0,1,1.68,11q0,12.54-8.8,19.46t-26.51,6.92a74.1,74.1,0,0,1-10.74-.71,70.51,70.51,0,0,1-8.47-1.74,49.56,49.56,0,0,1-6.34-2.2,49.06,49.06,0,0,1-4.46-2.2l5.69-16a50.06,50.06,0,0,0,9.9,3.94A51.07,51.07,0,0,0,601.61,670.07Z"/><path class="a" d="M706.5,595.83h20.18v89.63H706.5v-38H672.62v38H652.44V595.83h20.18V630.1H706.5Z"/><path class="a" d="M747.38,595.83h20.17v89.63H747.38Z"/><path class="a" d="M815,685.46q-5.35-11.3-10.55-23.44t-9.9-24q-4.68-11.9-8.61-22.76t-6.79-19.4h22.25q2.52,7.78,5.6,16.76t6.28,17.89l6.12,17.08q2.92,8.16,5.61,14.1,2.52-5.89,5.52-14.06t6.19-17.08q3.19-8.91,6.27-17.89t5.61-16.8h21.48q-3,8.56-6.93,19.42T854.62,638q-4.67,11.89-9.83,24.06t-10.5,23.4Z"/><path class="a" d="M881.63,685.46V595.83h60.54v16.94H901.81v17.59h35.83v16.56H901.81v21.6h43.33v16.94Z"/><polygon class="b" points="447.76 194.01 515.74 233.26 586.94 192.16 518.96 152.91 447.76 194.01"/><polygon class="c" points="586.94 365.23 515.74 324.13 444.53 365.23 515.74 406.34 586.94 365.23"/><polygon class="d" points="519.48 321.96 590.68 363.07 661.89 321.96 590.68 280.86 519.48 321.96"/><polygon class="e" points="736.83 278.69 665.63 237.59 594.43 278.69 665.63 319.8 736.83 278.69"/><polygon class="a" points="403.32 298.17 437.05 278.69 403.32 259.22 403.32 298.17"/><polygon class="f" points="778.05 345.76 744.32 365.23 778.05 384.71 778.05 345.76"/><polygon class="g" points="669.38 235.43 740.58 276.53 778.05 254.9 778.05 219.68 737.35 196.18 669.38 235.43"/><polygon class="h" points="590.68 190 658.65 150.75 590.68 111.5 522.72 150.75 590.68 190"/><polygon class="i" points="512 408.5 440.79 367.39 403.32 389.02 403.32 436.02 433.83 453.64 512 408.5"/><polygon class="j" points="590.68 453.95 512.52 499.06 590.68 544.2 668.85 499.06 590.68 453.95"/><polygon class="a" points="440.79 276.53 512 235.43 444.02 196.18 403.32 219.68 403.32 254.9 440.79 276.53"/><polygon class="k" points="743.8 455.8 665.63 410.67 594.43 451.78 672.6 496.91 743.8 455.8"/><polygon class="f" points="740.58 367.39 669.38 408.5 747.54 453.64 778.05 436.02 778.05 389.02 740.58 367.39"/><text class="l" transform="translate(226.61 742.06)">C<tspan class="m" x="42.01" y="0">L</tspan><tspan class="n" x="79.98" y="0">OUD P</tspan><tspan class="o" x="285.32" y="0">R</tspan><tspan class="n" x="327.36" y="0">ODU</tspan><tspan class="p" x="464.54" y="0">C</tspan><tspan class="n" x="507.36" y="0">TIVI</tspan><tspan class="q" x="651.38" y="0">T</tspan><tspan class="n" x="693.39" y="0">Y</tspan></text></svg>