<svg xmlns="http://www.w3.org/2000/svg" viewBox="0 0 617.87 532.2"><defs><style>.a{font-size:106.81px;letter-spacing:-0.01em;}.a,.l{fill:#45387f;}.a,.c{font-family:Ubuntu-Bold, Ubuntu;font-weight:700;}.b{letter-spacing:0em;}.c{font-size:31.54px;letter-spacing:0.45em;}.c,.o{fill:#7d6aad;}.d{letter-spacing:0.43em;}.e{letter-spacing:0.44em;}.f{letter-spacing:0.48em;}.g{letter-spacing:0.49em;}.h{fill:#5f4e9a;}.i{fill:#6d388c;}.j{fill:#804d99;}.k{fill:#9264a7;}.m{fill:#c584b8;}.n{fill:#a479b4;}.p{fill:#58267d;}.q{fill:#882c76;}.r{fill:#ae4d97;}</style></defs><title>squarehiveslogan</title><text class="a" transform="translate(0 473.97)">F<tspan class="b" x="60.45" y="0">OCUSHIVE</tspan></text><text class="c" transform="translate(8.82 525.23)">C<tspan class="d" x="34.76" y="0">L</tspan><tspan x="66.2" y="0">OUD P</tspan><tspan class="e" x="236.15" y="0">R</tspan><tspan x="270.93" y="0">ODU</tspan><tspan class="f" x="384.35" y="0">C</tspan><tspan x="419.78" y="0">TIVI</tspan><tspan class="g" x="539.13" y="0">T</tspan><tspan x="573.88" y="0">Y</tspan></text><polygon class="h" points="191.25 68.14 247.38 100.55 306.18 66.6 250.05 34.2 191.25 68.14"/><polygon class="i" points="306.18 209.53 247.38 175.59 188.59 209.53 247.38 243.48 306.18 209.53"/><polygon class="j" points="250.48 173.8 309.27 207.74 368.07 173.8 309.27 139.85 250.48 173.8"/><polygon class="k" points="429.96 138.07 371.16 104.12 312.37 138.07 371.16 172.01 429.96 138.07"/><polygon class="l" points="154.55 154.15 182.41 138.07 154.55 121.99 154.55 154.15"/><polygon class="m" points="464 193.45 436.14 209.53 464 225.61 464 193.45"/><polygon class="n" points="374.26 102.34 433.05 136.28 464 118.42 464 89.34 430.39 69.93 374.26 102.34"/><polygon class="o" points="309.27 64.82 365.4 32.41 309.27 0 253.15 32.41 309.27 64.82"/><polygon class="p" points="244.29 245.26 185.5 211.31 154.55 229.18 154.55 267.98 179.74 282.54 244.29 245.26"/><polygon class="q" points="309.27 282.79 244.73 320.05 309.27 357.32 373.82 320.05 309.27 282.79"/><polygon class="l" points="185.5 136.28 244.29 102.34 188.16 69.93 154.55 89.34 154.55 118.42 185.5 136.28"/><polygon class="r" points="435.71 284.32 371.16 247.05 312.37 281 376.92 318.26 435.71 284.32"/><polygon class="m" points="433.05 211.31 374.26 245.26 438.81 282.54 464 267.98 464 229.18 433.05 211.31"/></svg>